# GE Spline Export pedesrianSpline05
v 1012.506103515625	 6.750972747802734	 -1554.5653076171875
v 1013.4932861328125	 6.747134685516357	 -1553.806640625
v 1013.8292846679688	 6.750677585601807	 -1552.0758056640625
v 1014.2562255859375	 6.74798059463501	 -1550.2791748046875
v 1014.8372192382812	 6.750972747802734	 -1548.415283203125
v 1015.5411376953125	 6.727816581726074	 -1546.5482177734375
v 1016.3240356445312	 6.6566643714904785	 -1544.7083740234375
v 1017.2540893554688	 6.665206432342529	 -1542.93896484375
v 1018.1183471679688	 6.659019947052002	 -1541.13916015625
v 1018.9834594726562	 6.654162406921387	 -1539.3421630859375
v 1019.9418334960938	 6.6736741065979	 -1537.59228515625
v 1020.4507446289062	 6.7150559425354	 -1535.6590576171875
v 1021.0151977539062	 6.7006330490112305	 -1533.740478515625
v 1021.542724609375	 6.687144756317139	 -1531.811279296875
v 1022.0709838867188	 6.69276762008667	 -1529.8822021484375
v 1022.6071166992188	 6.703199863433838	 -1527.95556640625
v 1023.165771484375	 6.6937079429626465	 -1526.0350341796875
v 1023.7510375976562	 6.664830684661865	 -1524.1226806640625
v 1024.363037109375	 6.650185585021973	 -1522.21875
v 1025.01123046875	 6.643759727478027	 -1520.32666015625
v 1025.6923828125	 6.621065616607666	 -1518.4461669921875
v 1026.3984375	 6.622006416320801	 -1516.5750732421875
v 1026.6580810546875	 6.644489288330078	 -1514.629638671875
v 1025.46728515625	 6.72678279876709	 -1513.07666015625
v 1023.5941162109375	 6.750972747802734	 -1512.4237060546875
v 1021.6763916015625	 6.750972747802734	 -1512.79541015625
l 1 2
l 2 3
l 3 4
l 4 5
l 5 6
l 6 7
l 7 8
l 8 9
l 9 10
l 10 11
l 11 12
l 12 13
l 13 14
l 14 15
l 15 16
l 16 17
l 17 18
l 18 19
l 19 20
l 20 21
l 21 22
l 22 23
l 23 24
l 24 25
l 25 26
