# GE Spline Export pedesrianSpline04
v 983.7279663085938	 6.577041149139404	 -1514.4659423828125
v 983.6066284179688	 6.599410533905029	 -1516.4117431640625
v 984.349609375	 6.627846717834473	 -1518.1412353515625
v 986.3092041015625	 6.600762844085693	 -1518.389892578125
v 988.3060913085938	 6.5381574630737305	 -1518.4927978515625
v 990.2896118164062	 6.5312957763671875	 -1518.7454833984375
v 992.2573852539062	 6.574530601501465	 -1519.1009521484375
v 994.20947265625	 6.650514125823975	 -1519.537109375
v 996.1500244140625	 6.741551399230957	 -1520.0208740234375
v 998.0855712890625	 6.750972747802734	 -1520.5250244140625
v 1000.0206298828125	 6.750972747802734	 -1521.031005859375
v 1001.9593505859375	 6.750972747802734	 -1521.522216796875
v 1003.90283203125	 6.750972747802734	 -1521.9942626953125
v 1005.84814453125	 6.750972747802734	 -1522.4586181640625
v 1007.7919921875	 6.750972747802734	 -1522.9288330078125
v 1009.73095703125	 6.750972747802734	 -1523.419189453125
v 1011.6631469726562	 6.750972747802734	 -1523.93603515625
v 1013.5877685546875	 6.750972747802734	 -1524.4801025390625
v 1015.5032348632812	 6.750972747802734	 -1525.0560302734375
v 1017.405517578125	 6.750972747802734	 -1525.6734619140625
v 1019.3024291992188	 6.750972747802734	 -1526.3062744140625
v 1021.2479248046875	 6.750007629394531	 -1526.744384765625
v 1022.9121704101562	 6.713016033172607	 -1525.820556640625
v 1023.7239379882812	 6.6684184074401855	 -1524.0050048828125
v 1023.6137084960938	 6.701637268066406	 -1522.061279296875
v 1022.3645629882812	 6.749190807342529	 -1520.5946044921875
l 1 2
l 2 3
l 3 4
l 4 5
l 5 6
l 6 7
l 7 8
l 8 9
l 9 10
l 10 11
l 11 12
l 12 13
l 13 14
l 14 15
l 15 16
l 16 17
l 17 18
l 18 19
l 19 20
l 20 21
l 21 22
l 22 23
l 23 24
l 24 25
l 25 26
