# GE Spline Export spline117
v 692.5247802734375	 22.389564514160156	 1.76025390625
v 692.6229248046875	 22.30368995666504	 -0.2354736328125
v 692.7217407226562	 22.20880889892578	 -2.23126220703125
v 692.8214721679688	 22.106216430664062	 -4.22705078125
v 692.9227294921875	 22.003677368164062	 -6.22271728515625
v 693.0259399414062	 21.90823745727539	 -8.2183837890625
v 693.1316528320312	 21.823959350585938	 -10.214111328125
v 693.240234375	 21.748918533325195	 -12.20953369140625
v 693.3521118164062	 21.67973518371582	 -14.20501708984375
v 693.4677734375	 21.62225341796875	 -16.200439453125
v 693.5874633789062	 21.560976028442383	 -18.1954345703125
v 693.7116088867188	 21.50019073486328	 -20.19073486328125
v 693.8405151367188	 21.435707092285156	 -22.18548583984375
v 693.9744262695312	 21.38310432434082	 -24.1802978515625
v 694.113037109375	 21.343080520629883	 -26.17462158203125
v 694.2557373046875	 21.300933837890625	 -28.16912841796875
v 694.402099609375	 21.25419044494629	 -30.1629638671875
v 694.5518798828125	 21.209951400756836	 -32.1571044921875
v 694.704345703125	 21.181978225708008	 -34.150634765625
v 694.859375	 21.16278648376465	 -36.1444091796875
v 695.016357421875	 21.142925262451172	 -38.1378173828125
v 695.1751708984375	 21.120223999023438	 -40.1312255859375
v 695.3353271484375	 21.08100128173828	 -42.124755859375
v 695.4964599609375	 21.040586471557617	 -44.117919921875
v 695.658203125	 20.994909286499023	 -46.1112060546875
v 695.820556640625	 20.968055725097656	 -48.10467529296875
v 695.98291015625	 20.956504821777344	 -50.0977783203125
v 696.1455078125	 20.939224243164062	 -52.09112548828125
v 696.3087158203125	 20.924829483032227	 -54.08447265625
v 696.4730224609375	 20.91460609436035	 -56.07763671875
v 696.638671875	 20.907968521118164	 -58.07073974609375
v 696.8063354492188	 20.9153995513916	 -60.063720703125
v 696.9761962890625	 20.91280746459961	 -62.05645751953125
v 697.1488647460938	 20.891630172729492	 -64.049072265625
v 697.32470703125	 20.88705825805664	 -66.041259765625
v 697.5042114257812	 20.889442443847656	 -68.033203125
v 697.6878051757812	 20.903118133544922	 -70.02490234375
v 697.8759765625	 20.887426376342773	 -72.015869140625
v 698.0693969726562	 20.86327362060547	 -74.0067138671875
v 698.2684936523438	 20.867692947387695	 -75.99676513671875
v 698.4739990234375	 20.86541748046875	 -77.9862060546875
v 698.6858520507812	 20.835477828979492	 -79.97515869140625
v 698.904296875	 20.824386596679688	 -81.962890625
v 699.12939453125	 20.8242244720459	 -83.95068359375
v 699.3612670898438	 20.851303100585938	 -85.9366455078125
v 699.6002197265625	 20.883451461791992	 -87.9228515625
v 699.8465576171875	 20.884267807006836	 -89.9072265625
v 700.1005859375	 20.858165740966797	 -91.891357421875
v 700.3626708984375	 20.827911376953125	 -93.87432861328125
v 700.6333618164062	 20.806737899780273	 -95.85577392578125
v 700.9134521484375	 20.8512020111084	 -97.835693359375
v 701.203857421875	 20.907772064208984	 -99.81439208984375
v 701.5057373046875	 20.9471378326416	 -101.79156494140625
v 701.8200073242188	 21.023120880126953	 -103.7667236328125
v 702.1473388671875	 21.107011795043945	 -105.7392578125
v 702.48828125	 21.16423797607422	 -107.70947265625
v 702.8428955078125	 21.191713333129883	 -109.67724609375
v 703.2108154296875	 21.220365524291992	 -111.6424560546875
v 703.5911865234375	 21.284950256347656	 -113.60498046875
v 703.9828491210938	 21.361438751220703	 -115.56536865234375
v 704.3837890625	 21.346874237060547	 -117.52362060546875
v 704.792236328125	 21.292638778686523	 -119.48046875
v 705.20654296875	 21.344526290893555	 -121.435546875
v 705.6262817382812	 21.482072830200195	 -123.38958740234375
v 706.05029296875	 21.591999053955078	 -125.3421630859375
v 706.4781494140625	 21.606552124023438	 -127.2945556640625
v 706.908935546875	 21.652830123901367	 -129.24578857421875
v 707.3419189453125	 21.794034957885742	 -131.19598388671875
v 707.7767944335938	 21.934741973876953	 -133.14599609375
v 708.2130737304688	 22.040027618408203	 -135.09600830078125
v 708.6500244140625	 22.1416015625	 -137.0450439453125
v 709.0874633789062	 22.20510482788086	 -138.9935302734375
v 709.52587890625	 22.26894187927246	 -140.94329833984375
v 709.964599609375	 22.34996795654297	 -142.891357421875
v 710.4046630859375	 22.43703842163086	 -144.84088134765625
v 710.8452758789062	 22.531600952148438	 -146.7880859375
v 711.2872314453125	 22.631065368652344	 -148.73614501953125
v 711.73046875	 22.714494705200195	 -150.6844482421875
v 712.1749267578125	 22.805265426635742	 -152.63189697265625
v 712.6206665039062	 22.934364318847656	 -154.57855224609375
v 713.0678100585938	 23.077674865722656	 -156.5252685546875
v 713.5164794921875	 23.207494735717773	 -158.4718017578125
v 713.9666748046875	 23.335693359375	 -160.41802978515625
v 714.4183349609375	 23.474023818969727	 -162.364013671875
v 714.8716430664062	 23.614656448364258	 -164.30975341796875
v 715.3265380859375	 23.75535011291504	 -166.2552490234375
v 715.7830810546875	 23.900619506835938	 -168.20050048828125
v 716.241455078125	 24.031658172607422	 -170.14544677734375
v 716.7015380859375	 24.162721633911133	 -172.08950805664062
v 717.16357421875	 24.284717559814453	 -174.0333251953125
v 717.6278076171875	 24.390737533569336	 -175.976806640625
v 718.094482421875	 24.481538772583008	 -177.91986083984375
v 718.5634765625	 24.559507369995117	 -179.8621826171875
v 719.0352783203125	 24.626693725585938	 -181.80389404296875
v 719.5101318359375	 24.69123077392578	 -183.7452392578125
v 719.98828125	 24.76883316040039	 -185.68582153320312
v 720.47021484375	 24.832542419433594	 -187.62551879882812
v 720.9561767578125	 24.888832092285156	 -189.56417846679688
v 721.4468994140625	 24.949199676513672	 -191.50164794921875
v 721.943115234375	 25.016841888427734	 -193.4378662109375
v 722.4456176757812	 25.08045768737793	 -195.37237548828125
v 722.9554443359375	 25.130123138427734	 -197.30429077148438
v 723.4747314453125	 25.184606552124023	 -199.23422241210938
v 724.00537109375	 25.24688720703125	 -201.16241455078125
v 724.5485229492188	 25.309659957885742	 -203.08502197265625
v 725.1070556640625	 25.36810874938965	 -205.00448608398438
v 725.6828002929688	 25.404146194458008	 -206.91943359375
v 726.2774047851562	 25.42772674560547	 -208.82818603515625
v 726.8922119140625	 25.445375442504883	 -210.73049926757812
v 727.5279541015625	 25.468839645385742	 -212.626220703125
v 728.1836547851562	 25.48636245727539	 -214.5152587890625
v 728.8576049804688	 25.516786575317383	 -216.3978271484375
v 729.5469360351562	 25.545448303222656	 -218.2747802734375
v 730.2486572265625	 25.554872512817383	 -220.14755249023438
v 730.9603881835938	 25.566356658935547	 -222.0169677734375
v 731.6806640625	 25.572330474853516	 -223.88302612304688
v 732.4088745117188	 25.570262908935547	 -225.7459716796875
v 733.1444091796875	 25.573020935058594	 -227.605712890625
v 733.886962890625	 25.57925796508789	 -229.462890625
v 734.6363525390625	 25.562620162963867	 -231.31729125976562
v 735.3925170898438	 25.544021606445312	 -233.16885375976562
v 736.1556396484375	 25.5345401763916	 -235.01776123046875
v 736.9258422851562	 25.529855728149414	 -236.86383056640625
v 737.7036743164062	 25.536579132080078	 -238.70660400390625
v 738.489501953125	 25.527742385864258	 -240.54580688476562
v 739.2844848632812	 25.511049270629883	 -242.38079833984375
v 740.0902099609375	 25.519155502319336	 -244.2110595703125
v 740.9083251953125	 25.522968292236328	 -246.0357666015625
v 741.7399291992188	 25.510005950927734	 -247.8543701171875
v 742.5858154296875	 25.49997901916504	 -249.66668701171875
v 743.44580078125	 25.49091148376465	 -251.4720458984375
v 744.3194580078125	 25.485624313354492	 -253.27078247070312
v 745.2059936523438	 25.493982315063477	 -255.06332397460938
v 746.1043701171875	 25.486438751220703	 -256.8505859375
v 747.0125732421875	 25.427600860595703	 -258.6319274902344
v 747.9296875	 25.347454071044922	 -260.40838623046875
v 748.8551025390625	 25.320974349975586	 -262.1829528808594
v 749.7855224609375	 25.310453414916992	 -263.9521484375
v 750.7216796875	 25.28408432006836	 -265.7200927734375
v 751.661865234375	 25.28977394104004	 -267.48516845703125
v 752.605712890625	 25.29196548461914	 -269.248291015625
v 753.5527954101562	 25.26703453063965	 -271.010009765625
v 754.5025634765625	 25.259531021118164	 -272.77008056640625
v 755.4547119140625	 25.25983238220215	 -274.5289306640625
v 756.4088134765625	 25.26357078552246	 -276.28662109375
v 757.364501953125	 25.274818420410156	 -278.0431213378906
v 758.3219604492188	 25.2474422454834	 -279.799560546875
v 759.2803955078125	 25.177518844604492	 -281.5548400878906
v 760.2395629882812	 25.117786407470703	 -283.3096008300781
v 761.199462890625	 25.065723419189453	 -285.0640563964844
v 762.1600952148438	 25.021814346313477	 -286.8177795410156
v 763.1217651367188	 25.02436637878418	 -288.5707702636719
v 764.0849609375	 25.059123992919922	 -290.3233642578125
v 765.0496826171875	 25.130632400512695	 -292.07476806640625
v 766.0164184570312	 25.166662216186523	 -293.8253173828125
v 766.9849853515625	 25.040647506713867	 -295.574462890625
v 767.9559326171875	 24.913463592529297	 -297.32281494140625
v 768.9287719726562	 24.866662979125977	 -299.06951904296875
v 769.9039916992188	 24.82209014892578	 -300.8154602050781
v 770.8809814453125	 24.79098892211914	 -302.5596923828125
v 771.8607788085938	 24.81968879699707	 -304.30426025390625
v 772.8414306640625	 24.836814880371094	 -306.0462341308594
v 773.8240356445312	 24.751956939697266	 -307.78765869140625
v 774.808349609375	 24.6907901763916	 -309.5285949707031
v 775.7940673828125	 24.67792320251465	 -311.2688293457031
v 776.7811279296875	 24.67521095275879	 -313.0083312988281
v 777.7694091796875	 24.63214683532715	 -314.7471008300781
v 778.7589721679688	 24.59450912475586	 -316.485107421875
v 779.749755859375	 24.592077255249023	 -318.222412109375
v 780.7418212890625	 24.550613403320312	 -319.95904541015625
v 781.7349853515625	 24.510177612304688	 -321.69482421875
v 782.7295532226562	 24.448755264282227	 -323.4297790527344
v 783.7254028320312	 24.384584426879883	 -325.1636962890625
v 784.7230224609375	 24.348100662231445	 -326.8970642089844
v 785.722900390625	 24.306821823120117	 -328.63018798828125
v 786.7244262695312	 24.26944351196289	 -330.36175537109375
v 787.7272338867188	 24.260374069213867	 -332.09027099609375
v 788.7341918945312	 24.224449157714844	 -333.81982421875
v 789.7425537109375	 24.179655075073242	 -335.5452880859375
v 790.7547607421875	 24.150203704833984	 -337.2701110839844
v 791.7703857421875	 24.120637893676758	 -338.9930419921875
v 792.7891845703125	 24.095972061157227	 -340.7133483886719
v 793.812744140625	 24.067007064819336	 -342.432861328125
v 794.8390502929688	 24.03769874572754	 -344.14813232421875
v 795.8697509765625	 24.029254913330078	 -345.861572265625
v 796.90478515625	 24.050222396850586	 -347.57366943359375
v 797.942626953125	 24.06629180908203	 -349.2828369140625
v 798.9859619140625	 24.027559280395508	 -350.9892272949219
v 800.0389404296875	 24.01303482055664	 -352.6888122558594
v 801.109375	 24.00473403930664	 -354.3785400390625
v 802.2056884765625	 23.96538734436035	 -356.051025390625
v 803.3389892578125	 23.94521713256836	 -357.6986083984375
v 804.5201416015625	 23.97226905822754	 -359.31231689453125
v 805.7535400390625	 23.99247169494629	 -360.8865966796875
v 807.037109375	 23.995161056518555	 -362.420166015625
v 808.3642578125	 23.977869033813477	 -363.91607666015625
v 809.72607421875	 23.938350677490234	 -365.3809814453125
v 811.11474609375	 23.910764694213867	 -366.8200378417969
v 812.5286865234375	 23.909576416015625	 -368.2342224121094
v 813.966796875	 23.891712188720703	 -369.6236572265625
v 815.4280395507812	 23.851638793945312	 -370.98883056640625
v 816.9113159179688	 23.81621551513672	 -372.3302001953125
v 818.4154663085938	 23.80086898803711	 -373.648193359375
v 819.9385986328125	 23.782936096191406	 -374.94476318359375
v 821.4761962890625	 23.731813430786133	 -376.2225036621094
v 823.0264892578125	 23.68819808959961	 -377.48577880859375
v 824.5863037109375	 23.685476303100586	 -378.7372741699219
v 826.1534423828125	 23.675662994384766	 -379.9793701171875
v 827.7266235351562	 23.640348434448242	 -381.21466064453125
v 829.3035278320312	 23.62338638305664	 -382.44415283203125
v 830.8842163085938	 23.592039108276367	 -383.67022705078125
v 832.46630859375	 23.548973083496094	 -384.892822265625
v 834.05029296875	 23.509441375732422	 -386.1136474609375
v 835.635498046875	 23.474578857421875	 -387.33306884765625
v 837.2214965820312	 23.445194244384766	 -388.55157470703125
v 838.8078002929688	 23.4311466217041	 -389.76953125
v 840.394287109375	 23.411527633666992	 -390.9873962402344
v 841.98046875	 23.394058227539062	 -392.2054748535156
v 843.5662841796875	 23.39470672607422	 -393.42425537109375
v 845.1512451171875	 23.368425369262695	 -394.6441650390625
v 846.7348022460938	 23.34069061279297	 -395.86553955078125
v 848.3165283203125	 23.291175842285156	 -397.08880615234375
v 849.8967895507812	 23.290719985961914	 -398.31500244140625
v 851.474853515625	 23.287078857421875	 -399.5438232421875
v 853.0501708984375	 23.261951446533203	 -400.7756042480469
v 854.622802734375	 23.260845184326172	 -402.0109558105469
v 856.1925659179688	 23.250804901123047	 -403.2506103515625
v 857.7584228515625	 23.228755950927734	 -404.4947204589844
v 859.31982421875	 23.2117919921875	 -405.744140625
v 860.8762817382812	 23.178022384643555	 -407.00006103515625
v 862.4260864257812	 23.14724349975586	 -408.2640380859375
v 863.966796875	 23.12679672241211	 -409.5391845703125
v 865.4951782226562	 23.087661743164062	 -410.828857421875
v 867.00830078125	 23.073402404785156	 -412.1363525390625
v 868.5032958984375	 23.091934204101562	 -413.464599609375
v 869.9782104492188	 23.102989196777344	 -414.81494140625
v 871.432861328125	 23.072019577026367	 -416.1871032714844
v 872.8706665039062	 23.009225845336914	 -417.57684326171875
v 874.2959594726562	 22.975074768066406	 -418.9794006347656
v 875.7128295898438	 22.93522071838379	 -420.3904724121094
v 877.1248168945312	 22.87833595275879	 -421.806396484375
v 878.535400390625	 22.844951629638672	 -423.2239685058594
v 879.9471435546875	 22.82139778137207	 -424.64013671875
v 881.361572265625	 22.81911849975586	 -426.05389404296875
v 882.7781982421875	 22.81232261657715	 -427.46563720703125
v 884.1962280273438	 22.76966094970703	 -428.87579345703125
v 885.6151123046875	 22.721330642700195	 -430.2849426269531
v 887.0345458984375	 22.67687225341797	 -431.6939697265625
v 888.4537963867188	 22.646488189697266	 -433.1031494140625
v 889.871826171875	 22.625032424926758	 -434.51318359375
v 891.2860717773438	 22.608896255493164	 -435.92645263671875
v 892.6909790039062	 22.573537826538086	 -437.34906005859375
v 894.0797119140625	 22.5230770111084	 -438.78741455078125
v 895.4463500976562	 22.454259872436523	 -440.24658203125
v 896.7882080078125	 22.37055206298828	 -441.7290344238281
v 898.1049194335938	 22.32082176208496	 -443.23345947265625
v 899.400390625	 22.287633895874023	 -444.7571716308594
v 900.6773071289062	 22.28899574279785	 -446.2949523925781
v 901.940185546875	 22.28803253173828	 -447.8454895019531
v 903.190673828125	 22.214807510375977	 -449.406005859375
v 904.430419921875	 22.155702590942383	 -450.97467041015625
v 905.6612548828125	 22.11197853088379	 -452.5506591796875
v 906.8846435546875	 22.032453536987305	 -454.133056640625
v 908.1007080078125	 21.96534538269043	 -455.7200927734375
v 909.3116455078125	 21.950084686279297	 -457.3118591308594
v 910.5181274414062	 21.955738067626953	 -458.9069519042969
v 911.7211303710938	 22.001985549926758	 -460.5045166015625
v 912.9215087890625	 21.998313903808594	 -462.104248046875
v 914.11962890625	 21.90961265563965	 -463.7052307128906
v 915.3167114257812	 21.85403060913086	 -465.3077392578125
v 916.5126953125	 21.82952880859375	 -466.9103088378906
v 917.7092895507812	 21.819265365600586	 -468.5134582519531
v 918.9066162109375	 21.789756774902344	 -470.11529541015625
v 920.104248046875	 21.755142211914062	 -471.7164306640625
v 921.2982177734375	 21.724035263061523	 -473.3200378417969
v 922.482666015625	 21.693145751953125	 -474.9309387207031
v 923.6503295898438	 21.652936935424805	 -476.5543518066406
v 924.7940673828125	 21.617822647094727	 -478.194580078125
v 925.9092407226562	 21.59401512145996	 -479.85406494140625
v 926.994384765625	 21.562400817871094	 -481.53289794921875
v 928.0470581054688	 21.524444580078125	 -483.23199462890625
v 929.068115234375	 21.491046905517578	 -484.9512023925781
v 930.0621337890625	 21.4565486907959	 -486.684814453125
v 931.0361938476562	 21.425434112548828	 -488.4311218261719
v 931.9954223632812	 21.38245391845703	 -490.1874084472656
v 932.9418334960938	 21.339204788208008	 -491.94903564453125
v 933.87841796875	 21.302234649658203	 -493.7147216796875
v 934.808837890625	 21.27623176574707	 -495.4869384765625
v 935.731201171875	 21.247709274291992	 -497.2587890625
v 936.6484375	 21.194093704223633	 -499.0327453613281
v 937.5651245117188	 21.14879035949707	 -500.81622314453125
v 938.4732055664062	 21.122882843017578	 -502.5914611816406
v 939.3814697265625	 21.095365524291992	 -504.37451171875
v 940.2890014648438	 21.06298828125	 -506.162353515625
v 941.1902465820312	 21.03420639038086	 -507.94293212890625
v 942.09130859375	 20.999290466308594	 -509.72705078125
v 942.99169921875	 20.96294593811035	 -511.5132141113281
v 943.8912353515625	 20.932361602783203	 -513.3004760742188
v 944.7898559570312	 20.908035278320312	 -515.0883178710938
v 945.6876220703125	 20.87401008605957	 -516.8764038085938
v 946.584716796875	 20.85243797302246	 -518.66455078125
v 947.4810791015625	 20.827476501464844	 -520.4528198242188
v 948.376953125	 20.793813705444336	 -522.2410278320312
v 949.2723999023438	 20.757352828979492	 -524.029296875
v 950.1676025390625	 20.732995986938477	 -525.817626953125
v 951.0625	 20.714399337768555	 -527.60595703125
v 951.9573974609375	 20.693429946899414	 -529.3943481445312
v 952.8521728515625	 20.671016693115234	 -531.182861328125
v 953.7470703125	 20.642578125	 -532.971435546875
v 954.64208984375	 20.60482406616211	 -534.760009765625
v 955.5372924804688	 20.571096420288086	 -536.548583984375
v 956.4326782226562	 20.540809631347656	 -538.337158203125
v 957.328369140625	 20.51313018798828	 -540.1256103515625
v 958.224365234375	 20.505298614501953	 -541.9139404296875
v 959.1207275390625	 20.494382858276367	 -543.7020874023438
v 960.0175170898438	 20.486459732055664	 -545.489990234375
v 960.914794921875	 20.46906089782715	 -547.277587890625
v 961.8126831054688	 20.450376510620117	 -549.0648803710938
v 962.711181640625	 20.445281982421875	 -550.851806640625
v 963.6103515625	 20.439361572265625	 -552.6383056640625
v 964.5103759765625	 20.425046920776367	 -554.4244384765625
v 965.411376953125	 20.401620864868164	 -556.2100830078125
v 966.3133544921875	 20.399131774902344	 -557.9953002929688
v 967.216552734375	 20.420726776123047	 -559.7799682617188
v 968.1209716796875	 20.407119750976562	 -561.56396484375
v 969.0267333984375	 20.382869720458984	 -563.347412109375
v 969.9337768554688	 20.363788604736328	 -565.1301879882812
v 970.8421630859375	 20.346250534057617	 -566.9121704101562
v 971.7518310546875	 20.32628631591797	 -568.6932983398438
v 972.66259765625	 20.314184188842773	 -570.4733276367188
v 973.5746459960938	 20.299270629882812	 -572.2520141601562
v 974.4876708984375	 20.29646110534668	 -574.0291748046875
v 975.404052734375	 20.281530380249023	 -575.80908203125
v 976.32177734375	 20.2643985748291	 -577.587646484375
v 977.2403564453125	 20.277925491333008	 -579.364013671875
v 978.1596069335938	 20.294570922851562	 -581.1376342773438
v 979.0823364257812	 20.29185676574707	 -582.9136962890625
v 980.006591796875	 20.29420280456543	 -584.6884765625
v 980.9309692382812	 20.285449981689453	 -586.4589233398438
v 981.8596801757812	 20.284259796142578	 -588.2330322265625
v 982.7886962890625	 20.300556182861328	 -590.0028076171875
v 983.7208862304688	 20.297767639160156	 -591.7735595703125
v 984.6538696289062	 20.272327423095703	 -593.5404052734375
v 985.5911865234375	 20.272418975830078	 -595.309814453125
v 986.529296875	 20.278261184692383	 -597.0747680664062
v 987.4696044921875	 20.271568298339844	 -598.8375244140625
v 988.4146118164062	 20.26410484313965	 -600.6021118164062
v 989.362060546875	 20.259593963623047	 -602.3638305664062
v 990.312255859375	 20.262147903442383	 -604.122802734375
v 991.2659301757812	 20.279687881469727	 -605.8799438476562
v 992.22412109375	 20.281230926513672	 -607.6378173828125
v 993.1831665039062	 20.26402473449707	 -609.3897705078125
v 994.1469116210938	 20.25006866455078	 -611.144287109375
v 995.1113891601562	 20.229108810424805	 -612.8961791992188
v 996.0752563476562	 20.21956443786621	 -614.6468505859375
v 997.037841796875	 20.223499298095703	 -616.4013671875
v 997.9927368164062	 20.224363327026367	 -618.158203125
v 998.9342651367188	 20.214309692382812	 -619.9223022460938
v 999.8543701171875	 20.20469093322754	 -621.6973876953125
v 1000.7483520507812	 20.180177688598633	 -623.4864501953125
v 1001.613525390625	 20.160926818847656	 -625.2894897460938
v 1002.448486328125	 20.154008865356445	 -627.1068115234375
v 1003.253173828125	 20.148635864257812	 -628.9378051757812
v 1004.029541015625	 20.14624786376953	 -630.78076171875
v 1004.7811279296875	 20.151960372924805	 -632.6337890625
v 1005.499755859375	 20.14591407775879	 -634.4998168945312
v 1006.1803588867188	 20.127370834350586	 -636.3778076171875
v 1006.833984375	 20.120485305786133	 -638.2704467773438
v 1007.4671630859375	 20.132448196411133	 -640.1668090820312
v 1008.086181640625	 20.140993118286133	 -642.0651245117188
v 1008.6980590820312	 20.13947296142578	 -643.9736938476562
v 1009.3014526367188	 20.132152557373047	 -645.8798828125
v 1009.8991088867188	 20.12455940246582	 -647.78662109375
v 1010.4918212890625	 20.11027717590332	 -649.6920776367188
v 1011.0833740234375	 20.100841522216797	 -651.60546875
v 1011.67041015625	 20.09327507019043	 -653.5142211914062
v 1012.25830078125	 20.088459014892578	 -655.4331665039062
v 1012.8408203125	 20.083831787109375	 -657.3409423828125
v 1013.42333984375	 20.074857711791992	 -659.25390625
v 1014.00537109375	 20.04737091064453	 -661.1694946289062
v 1014.5865478515625	 20.032209396362305	 -663.0860595703125
v 1015.165771484375	 20.041494369506836	 -664.99951171875
v 1015.744140625	 20.046457290649414	 -666.9130249023438
v 1016.3221435546875	 20.051084518432617	 -668.8275146484375
v 1016.8994750976562	 20.045392990112305	 -670.7425537109375
v 1017.4763793945312	 20.03482437133789	 -672.6578979492188
v 1018.052734375	 20.039997100830078	 -674.5735473632812
v 1018.6286010742188	 20.020095825195312	 -676.4893798828125
v 1019.2040405273438	 19.996755599975586	 -678.4052124023438
v 1019.779052734375	 19.93999671936035	 -680.3211669921875
v 1020.3536376953125	 19.8917236328125	 -682.237060546875
v 1020.9277954101562	 19.875450134277344	 -684.1528930664062
v 1021.50146484375	 19.8303279876709	 -686.068603515625
v 1022.074951171875	 19.78491973876953	 -687.9844360351562
v 1022.6483154296875	 19.799678802490234	 -689.9013671875
v 1023.2215576171875	 19.84504508972168	 -691.8186645507812
v 1023.7944946289062	 19.839096069335938	 -693.736083984375
v 1024.3670654296875	 19.79169273376465	 -695.6532592773438
v 1024.939208984375	 19.75938606262207	 -697.569580078125
v 1025.5103759765625	 19.718446731567383	 -699.4840698242188
v 1026.08203125	 19.718151092529297	 -701.4009399414062
v 1026.654541015625	 19.712295532226562	 -703.3214111328125
v 1027.22509765625	 19.66362953186035	 -705.2359008789062
v 1027.7962646484375	 19.614627838134766	 -707.1537475585938
v 1028.3663330078125	 19.594758987426758	 -709.06884765625
v 1028.9375	 19.570114135742188	 -710.9883422851562
v 1029.5072021484375	 19.5447998046875	 -712.9044799804688
v 1030.0767822265625	 19.51769256591797	 -714.8213500976562
v 1030.645751953125	 19.481956481933594	 -716.7381591796875
v 1031.213623046875	 19.453224182128906	 -718.6537475585938
v 1031.78125	 19.432498931884766	 -720.5712280273438
v 1032.3472900390625	 19.398658752441406	 -722.4873046875
v 1032.91259765625	 19.368478775024414	 -724.4066162109375
v 1033.47509765625	 19.367210388183594	 -726.3245239257812
v 1034.048095703125	 19.370580673217773	 -728.240234375
v 1035.1337890625	 19.324766159057617	 -729.8501586914062
v 1037.01416015625	 19.295499801635742	 -730.4783325195312
v 1039.0078125	 19.267845153808594	 -730.4338989257812
v 1040.9893798828125	 19.23508071899414	 -730.1863403320312
v 1042.9686279296875	 19.199050903320312	 -729.9165649414062
v 1044.9482421875	 19.168121337890625	 -729.6414794921875
v 1046.93115234375	 19.137258529663086	 -729.3637084960938
v 1048.9111328125	 19.102895736694336	 -729.085205078125
v 1050.88671875	 19.071802139282227	 -728.8065795898438
v 1052.87109375	 19.040916442871094	 -728.5262451171875
v 1054.8455810546875	 19.006893157958984	 -728.2470092773438
v 1056.831787109375	 18.975379943847656	 -727.9659423828125
v 1058.812255859375	 18.944557189941406	 -727.6854858398438
v 1060.7880859375	 18.909912109375	 -727.4056396484375
v 1062.7667236328125	 18.879119873046875	 -727.125244140625
v 1064.74658203125	 18.845399856567383	 -726.8445434570312
v 1066.7271728515625	 18.813587188720703	 -726.5636596679688
v 1068.70849609375	 18.77885627746582	 -726.282470703125
v 1070.6907958984375	 18.748001098632812	 -726.0010375976562
v 1072.6746826171875	 18.711048126220703	 -725.71923828125
v 1074.6507568359375	 18.679943084716797	 -725.4384155273438
v 1076.627197265625	 18.647825241088867	 -725.1573486328125
v 1078.605712890625	 18.61217498779297	 -724.8758544921875
v 1080.587158203125	 18.57524871826172	 -724.5938110351562
v 1082.5716552734375	 18.53826904296875	 -724.3111572265625
v 1084.549072265625	 18.50140953063965	 -724.0294189453125
v 1086.525634765625	 18.466527938842773	 -723.74755859375
v 1088.50634765625	 18.4354248046875	 -723.4649658203125
v 1090.4912109375	 18.3984375	 -723.181640625
v 1092.466552734375	 18.362388610839844	 -722.8995361328125
v 1094.44482421875	 18.32597541809082	 -722.6168212890625
v 1096.427734375	 18.291288375854492	 -722.333251953125
v 1098.4066162109375	 18.254369735717773	 -722.0501098632812
v 1100.3837890625	 18.21821403503418	 -721.7670288085938
v 1102.3658447265625	 18.18107795715332	 -721.4830322265625
v 1104.3453369140625	 18.145034790039062	 -721.1992797851562
v 1106.322509765625	 18.106565475463867	 -720.9156494140625
v 1108.3045654296875	 18.0718936920166	 -720.6311645507812
v 1110.2830810546875	 18.033401489257812	 -720.3469848632812
v 1112.2611083984375	 17.994916915893555	 -720.0626831054688
v 1114.24365234375	 17.956348419189453	 -719.7775268554688
v 1116.220458984375	 17.917888641357422	 -719.4929809570312
v 1118.19970703125	 17.879383087158203	 -719.2079467773438
v 1120.181396484375	 17.839923858642578	 -718.9223022460938
v 1122.157958984375	 17.795658111572266	 -718.63720703125
v 1124.1383056640625	 17.759958267211914	 -718.351318359375
v 1126.1173095703125	 17.71756362915039	 -718.0654296875
v 1128.0955810546875	 17.67650032043457	 -717.7794799804688
v 1130.0767822265625	 17.630720138549805	 -717.4927978515625
v 1132.0538330078125	 17.588111877441406	 -717.20654296875
v 1134.0333251953125	 17.54397201538086	 -716.919677734375
v 1136.0125732421875	 17.501649856567383	 -716.6326293945312
v 1137.9908447265625	 17.462013244628906	 -716.345458984375
v 1139.9708251953125	 17.4138126373291	 -716.0578002929688
v 1141.94873046875	 17.370847702026367	 -715.7702026367188
v 1143.927734375	 17.324644088745117	 -715.482177734375
v 1145.906494140625	 17.282339096069336	 -715.1939086914062
v 1147.885009765625	 17.236146926879883	 -714.9053955078125
v 1149.8638916015625	 17.189950942993164	 -714.6165771484375
v 1151.8421630859375	 17.14765167236328	 -714.3275756835938
v 1153.8206787109375	 17.101459503173828	 -714.0382690429688
v 1155.799072265625	 17.052165985107422	 -713.748779296875
v 1157.777587890625	 17.005191802978516	 -713.458984375
v 1159.7557373046875	 16.959007263183594	 -713.1690063476562
v 1161.7342529296875	 16.912817001342773	 -712.8787841796875
v 1163.71240234375	 16.86274528503418	 -712.5883178710938
v 1165.6905517578125	 16.813879013061523	 -712.2976684570312
v 1167.6690673828125	 16.766483306884766	 -712.0067749023438
v 1169.646484375	 16.71310806274414	 -711.7158203125
v 1171.6253662109375	 16.661958694458008	 -711.4244384765625
v 1173.603271484375	 16.60614585876465	 -711.133056640625
v 1175.5810546875	 16.564350128173828	 -710.8414306640625
v 1177.5595703125	 16.510822296142578	 -710.5494995117188
v 1179.5364990234375	 16.455318450927734	 -710.2576904296875
v 1181.515625	 16.400413513183594	 -709.96533203125
v 1183.4931640625	 16.348434448242188	 -709.673095703125
v 1185.470703125	 16.30049705505371	 -709.380615234375
v 1187.449462890625	 16.244565963745117	 -709.0878295898438
v 1189.42578125	 16.190736770629883	 -708.7952880859375
v 1191.40478515625	 16.1368350982666	 -708.5021362304688
v 1193.3824462890625	 16.082971572875977	 -708.2090454101562
v 1195.359375	 16.02912139892578	 -707.9159545898438
v 1197.3385009765625	 15.975218772888184	 -707.6223754882812
v 1199.3148193359375	 15.920157432556152	 -707.3291015625
v 1201.293212890625	 15.863609313964844	 -707.035400390625
v 1203.2713623046875	 15.808670043945312	 -706.7415771484375
v 1205.24658203125	 15.752038955688477	 -706.4481201171875
v 1207.2266845703125	 15.697227478027344	 -706.1537475585938
v 1209.2037353515625	 15.639575958251953	 -705.8598022460938
v 1211.18017578125	 15.575882911682129	 -705.5657958984375
v 1213.15966796875	 15.524833679199219	 -705.271240234375
v 1215.1357421875	 15.46623420715332	 -704.9771118164062
v 1217.1131591796875	 15.403986930847168	 -704.6827392578125
v 1219.09228515625	 15.341686248779297	 -704.3880004882812
v 1221.067626953125	 15.27940845489502	 -704.0936889648438
v 1223.0458984375	 15.228190422058105	 -703.7989501953125
v 1225.024658203125	 15.159149169921875	 -703.5040893554688
v 1226.9996337890625	 15.100555419921875	 -703.2096557617188
v 1228.9781494140625	 15.035703659057617	 -702.9147338867188
v 1230.95703125	 14.977991104125977	 -702.6196899414062
v 1232.9322509765625	 14.916509628295898	 -702.3250732421875
v 1234.9095458984375	 14.854951858520508	 -702.0302124023438
v 1236.88916015625	 14.793334007263184	 -701.7349243164062
v 1238.8653564453125	 14.731821060180664	 -701.440185546875
v 1240.8397216796875	 14.670354843139648	 -701.1456909179688
v 1242.8206787109375	 14.6048002243042	 -700.8502197265625
v 1244.798583984375	 14.543234825134277	 -700.5552368164062
v 1246.773193359375	 14.478759765625	 -700.2607421875
v 1248.7501220703125	 14.415812492370605	 -699.9659423828125
v 1250.7301025390625	 14.351868629455566	 -699.6707153320312
v 1252.70751953125	 14.289259910583496	 -699.3758544921875
v 1254.6824951171875	 14.22388744354248	 -699.0814208984375
v 1256.65771484375	 14.155699729919434	 -698.786865234375
v 1258.637939453125	 14.08647632598877	 -698.4915161132812
v 1260.6163330078125	 14.022470474243164	 -698.1964111328125
v 1262.5931396484375	 13.957329750061035	 -697.9014892578125
v 1264.568603515625	 13.892253875732422	 -697.606689453125
v 1266.5430908203125	 13.822415351867676	 -697.3118896484375
v 1268.5216064453125	 13.750558853149414	 -697.016357421875
v 1270.5003662109375	 13.684809684753418	 -696.7206420898438
v 1272.4783935546875	 13.625748634338379	 -696.4248657226562
v 1274.4556884765625	 13.552139282226562	 -696.12890625
v 1276.4326171875	 13.484587669372559	 -695.8328247070312
v 1278.4091796875	 13.417577743530273	 -695.5364379882812
v 1280.3856201171875	 13.349860191345215	 -695.23974609375
v 1282.362060546875	 13.283041000366211	 -694.9427490234375
v 1284.338623046875	 13.215140342712402	 -694.6452026367188
v 1286.3153076171875	 13.148487091064453	 -694.3472290039062
v 1288.2919921875	 13.079268455505371	 -694.0486450195312
v 1290.268798828125	 13.013933181762695	 -693.7494506835938
v 1292.2452392578125	 12.944723129272461	 -693.4495849609375
v 1294.2213134765625	 12.87552261352539	 -693.1489868164062
v 1296.1966552734375	 12.807104110717773	 -692.8475952148438
v 1298.1705322265625	 12.732270240783691	 -692.5453491210938
v 1300.1451416015625	 12.671964645385742	 -692.2418823242188
v 1302.1236572265625	 12.60168743133545	 -691.9364013671875
v 1304.099365234375	 12.527724266052246	 -691.6298828125
v 1306.071044921875	 12.453889846801758	 -691.322265625
v 1308.04833984375	 12.379812240600586	 -691.0116577148438
v 1310.0223388671875	 12.310497283935547	 -690.69921875
v 1311.99560546875	 12.248873710632324	 -690.3841552734375
v 1313.9686279296875	 12.173584938049316	 -690.0660400390625
v 1315.94287109375	 12.103167533874512	 -689.7440795898438
v 1317.9132080078125	 12.034172058105469	 -689.4187622070312
v 1319.8824462890625	 11.969101905822754	 -689.0889892578125
v 1321.852783203125	 11.900096893310547	 -688.753662109375
v 1323.8232421875	 11.831092834472656	 -688.411865234375
v 1325.7935791015625	 11.76598834991455	 -688.0625
v 1327.7589111328125	 11.697162628173828	 -687.7047119140625
v 1329.724609375	 11.632211685180664	 -687.3353881835938
v 1331.6861572265625	 11.566484451293945	 -686.9521484375
v 1333.642333984375	 11.494414329528809	 -686.5508422851562
v 1335.595703125	 11.426966667175293	 -686.1240234375
v 1337.5411376953125	 11.366366386413574	 -685.6621704101562
v 1339.4710693359375	 11.31184196472168	 -685.1472778320312
v 1341.3770751953125	 11.258237838745117	 -684.54296875
v 1343.2315673828125	 11.228285789489746	 -683.7975463867188
v 1345.026123046875	 11.193696022033691	 -682.916015625
v 1346.7978515625	 11.166481018066406	 -681.988525390625
v 1348.5604248046875	 11.13169002532959	 -681.043212890625
v 1350.3199462890625	 11.104691505432129	 -680.092529296875
v 1352.0802001953125	 11.066019058227539	 -679.1436157226562
v 1353.8380126953125	 11.023345947265625	 -678.1918334960938
v 1355.587158203125	 11.018025398254395	 -677.2279052734375
v 1357.3184814453125	 11.005386352539062	 -676.239013671875
v 1359.019775390625	 10.935128211975098	 -675.2133178710938
v 1360.7197265625	 10.89857292175293	 -674.1864013671875
v 1362.4591064453125	 10.855557441711426	 -673.2106323242188
v 1364.2413330078125	 10.80618667602539	 -672.3045654296875
v 1366.048828125	 10.762858390808105	 -671.4492797851562
v 1367.871826171875	 10.714129447937012	 -670.630126953125
v 1369.709228515625	 10.68088150024414	 -669.84423828125
v 1371.565185546875	 10.649297714233398	 -669.104248046875
v 1373.462646484375	 10.622859001159668	 -668.4791870117188
v 1375.4417724609375	 10.599373817443848	 -668.2595825195312
v 1377.3546142578125	 10.581734657287598	 -668.7850952148438
v 1378.89404296875	 10.572020530700684	 -670.0482177734375
v 1380.16064453125	 10.561264991760254	 -671.59423828125
v 1381.2825927734375	 10.55142879486084	 -673.249755859375
v 1382.31982421875	 10.544904708862305	 -674.9595947265625
v 1383.305908203125	 10.538135528564453	 -676.6991577148438
v 1384.258056640625	 10.531291007995605	 -678.4581909179688
v 1385.1851806640625	 10.525291442871094	 -680.2304077148438
v 1386.0953369140625	 10.521357536315918	 -682.0111083984375
v 1386.996337890625	 10.517509460449219	 -683.7964477539062
v 1387.8935546875	 10.511345863342285	 -685.5842895507812
v 1388.7896728515625	 10.5066556930542	 -687.3717041015625
v 1389.6875	 10.503161430358887	 -689.1588745117188
v 1390.587646484375	 10.498270034790039	 -690.944580078125
v 1391.490966796875	 10.492253303527832	 -692.729248046875
v 1392.3966064453125	 10.484838485717773	 -694.512939453125
v 1393.303955078125	 10.480158805847168	 -696.2952880859375
v 1394.212890625	 10.46968936920166	 -698.0770263671875
v 1395.1231689453125	 10.459696769714355	 -699.85791015625
v 1396.03466796875	 10.448744773864746	 -701.6380004882812
v 1396.9476318359375	 10.434375762939453	 -703.417724609375
v 1397.8616943359375	 10.419241905212402	 -705.1964721679688
v 1398.7779541015625	 10.401837348937988	 -706.9749755859375
v 1399.697021484375	 10.385408401489258	 -708.7509765625
v 1400.62255859375	 10.369462966918945	 -710.5240478515625
v 1401.5595703125	 10.353541374206543	 -712.2901611328125
v 1402.5184326171875	 10.336326599121094	 -714.0452880859375
v 1403.5177001953125	 10.324687004089355	 -715.7777099609375
v 1404.5770263671875	 10.313332557678223	 -717.4736938476562
v 1405.6962890625	 10.306883811950684	 -719.1307373046875
v 1406.84619140625	 10.303502082824707	 -720.766845703125
v 1408.0179443359375	 10.303572654724121	 -722.3875732421875
v 1409.20849609375	 10.307393074035645	 -723.994384765625
v 1410.4136962890625	 10.31289291381836	 -725.5906372070312
v 1411.6300048828125	 10.317625999450684	 -727.17822265625
v 1412.8568115234375	 10.322016716003418	 -728.75830078125
v 1414.09326171875	 10.321672439575195	 -730.330078125
v 1415.340576171875	 10.319066047668457	 -731.8935546875
v 1416.599609375	 10.313432693481445	 -733.44775390625
v 1417.871826171875	 10.307891845703125	 -734.9911499023438
v 1419.1575927734375	 10.301466941833496	 -736.52294921875
v 1420.457275390625	 10.297661781311035	 -738.0435791015625
v 1421.770751953125	 10.291829109191895	 -739.5513916015625
v 1423.1009521484375	 10.287544250488281	 -741.0452880859375
v 1424.4517822265625	 10.282024383544922	 -742.5198974609375
v 1425.8343505859375	 10.280155181884766	 -743.9655151367188
v 1427.2657470703125	 10.27523136138916	 -745.361572265625
v 1428.7701416015625	 10.269731521606445	 -746.6788940429688
v 1430.367919921875	 10.265057563781738	 -747.880126953125
v 1432.1217041015625	 10.255863189697266	 -748.8349609375
v 1434.014404296875	 10.235275268554688	 -749.4766845703125
v 1435.95556640625	 10.210803031921387	 -749.9562377929688
v 1437.917236328125	 10.172698020935059	 -750.343505859375
v 1439.8857421875	 10.132988929748535	 -750.6964721679688
v 1441.85400390625	 10.106762886047363	 -751.0509033203125
v 1443.8184814453125	 10.104351997375488	 -751.426513671875
v 1445.77001953125	 10.114410400390625	 -751.8634643554688
v 1447.687744140625	 10.13254165649414	 -752.4285888671875
v 1449.557861328125	 10.154902458190918	 -753.13623046875
v 1451.4080810546875	 10.177464485168457	 -753.8959350585938
v 1453.25732421875	 10.187771797180176	 -754.657958984375
v 1455.1060791015625	 10.18819808959961	 -755.4210815429688
v 1456.9078369140625	 10.167535781860352	 -756.281982421875
v 1458.2215576171875	 10.126495361328125	 -757.7651977539062
v 1459.0831298828125	 10.091800689697266	 -759.5679321289062
v 1459.80517578125	 10.076373100280762	 -761.43310546875
v 1460.4818115234375	 10.090508460998535	 -763.315185546875
v 1461.14990234375	 10.123152732849121	 -765.2000732421875
v 1461.87890625	 10.174885749816895	 -767.0618286132812
v 1462.7215576171875	 10.210379600524902	 -768.874755859375
v 1463.805419921875	 10.2401123046875	 -770.549072265625
v 1465.3463134765625	 10.258780479431152	 -771.814208984375
v 1466.9815673828125	 10.2721586227417	 -772.9633178710938
v 1468.7911376953125	 10.279342651367188	 -773.7916870117188
v 1470.7178955078125	 10.28531551361084	 -774.326171875
v 1472.6640625	 10.290521621704102	 -774.7898559570312
v 1474.61572265625	 10.294224739074707	 -775.226806640625
v 1476.570556640625	 10.297940254211426	 -775.6506958007812
v 1478.5264892578125	 10.29961109161377	 -776.0677490234375
v 1480.483154296875	 10.303502082824707	 -776.4822998046875
v 1482.43994140625	 10.305213928222656	 -776.8965454101562
v 1484.3968505859375	 10.307393074035645	 -777.3092041015625
v 1486.354736328125	 10.311284065246582	 -777.7176513671875
v 1488.3140869140625	 10.312505722045898	 -778.119384765625
v 1490.2752685546875	 10.31517505645752	 -778.511474609375
v 1492.2391357421875	 10.319066047668457	 -778.890380859375
v 1494.2064208984375	 10.320046424865723	 -779.251953125
v 1496.17724609375	 10.323646545410156	 -779.5916748046875
v 1498.151611328125	 10.326848030090332	 -779.9102783203125
v 1500.1290283203125	 10.3312406539917	 -780.2108764648438
v 1502.1082763671875	 10.335052490234375	 -780.49755859375
v 1504.0888671875	 10.3388671875	 -780.7765502929688
v 1506.0689697265625	 10.342679977416992	 -781.0576782226562
v 1508.047119140625	 10.346487045288086	 -781.3497314453125
v 1510.02392578125	 10.354085922241211	 -781.6519775390625
v 1511.9996337890625	 10.357975006103516	 -781.959716796875
v 1513.9757080078125	 10.361867904663086	 -782.2679443359375
v 1515.952392578125	 10.369464874267578	 -782.5746459960938
v 1517.9287109375	 10.377154350280762	 -782.8810424804688
v 1519.9051513671875	 10.38095474243164	 -783.188720703125
v 1521.8812255859375	 10.388643264770508	 -783.4989013671875
v 1523.8565673828125	 10.396328926086426	 -783.8133544921875
v 1525.8304443359375	 10.404009819030762	 -784.1348876953125
v 1527.8026123046875	 10.411684036254883	 -784.4671630859375
v 1529.7728271484375	 10.423240661621094	 -784.8099365234375
v 1531.7418212890625	 10.4315185546875	 -785.1588134765625
v 1533.71142578125	 10.440534591674805	 -785.5057983398438
v 1535.68212890625	 10.450124740600586	 -785.8475341796875
v 1537.652099609375	 10.459896087646484	 -786.1932983398438
v 1539.619140625	 10.471495628356934	 -786.55517578125
v 1541.578857421875	 10.48067569732666	 -786.9548950195312
v 1543.518310546875	 10.4901123046875	 -787.4407958984375
v 1545.410888671875	 10.499980926513672	 -788.0841064453125
v 1547.1785888671875	 10.509727478027344	 -789.0089111328125
v 1548.6934814453125	 10.508516311645508	 -790.3113403320312
v 1550.07763671875	 10.50259780883789	 -791.754638671875
v 1551.3995361328125	 10.49705982208252	 -793.255615234375
v 1552.6800537109375	 10.496809959411621	 -794.791748046875
v 1553.921630859375	 10.503344535827637	 -796.3595581054688
v 1555.1124267578125	 10.513924598693848	 -797.9664306640625
v 1556.233154296875	 10.527714729309082	 -799.6227416992188
v 1557.2860107421875	 10.534331321716309	 -801.3233032226562
v 1558.3084716796875	 10.54085636138916	 -803.042236328125
v 1559.380126953125	 10.54085636138916	 -804.7302856445312
v 1560.647216796875	 10.544747352600098	 -806.2740478515625
v 1562.2139892578125	 10.549469947814941	 -807.508544921875
v 1564.0001220703125	 10.55642032623291	 -808.4041137695312
v 1565.8709716796875	 10.559809684753418	 -809.1101684570312
v 1567.77587890625	 10.567002296447754	 -809.719482421875
v 1569.7010498046875	 10.570821762084961	 -810.258056640625
v 1571.6409912109375	 10.575875282287598	 -810.7450561523438
v 1573.5889892578125	 10.579766273498535	 -811.1965942382812
v 1575.5423583984375	 10.585768699645996	 -811.6233520507812
v 1577.50048828125	 10.589495658874512	 -812.0328979492188
v 1579.4605712890625	 10.595331192016602	 -812.4308471679688
v 1581.422607421875	 10.599222183227539	 -812.8207397460938
v 1583.385498046875	 10.604613304138184	 -813.2044677734375
v 1585.3497314453125	 10.609273910522461	 -813.58349609375
v 1587.3140869140625	 10.614786148071289	 -813.9586791992188
v 1589.2794189453125	 10.619763374328613	 -814.330810546875
v 1591.2449951171875	 10.625292778015137	 -814.7003173828125
v 1593.211181640625	 10.631173133850098	 -815.0677490234375
v 1595.1773681640625	 10.634930610656738	 -815.4334106445312
v 1597.143798828125	 10.642582893371582	 -815.7971801757812
v 1599.1107177734375	 10.646346092224121	 -816.1590576171875
v 1601.0780029296875	 10.653696060180664	 -816.51904296875
v 1603.0455322265625	 10.657764434814453	 -816.8770141601562
v 1605.013427734375	 10.665369987487793	 -817.233154296875
v 1606.98193359375	 10.669190406799316	 -817.5875244140625
v 1608.9501953125	 10.676849365234375	 -817.940185546875
v 1610.9189453125	 10.681753158569336	 -818.2913818359375
v 1612.8880615234375	 10.688281059265137	 -818.6412963867188
v 1614.857421875	 10.692606925964355	 -818.9900512695312
v 1616.8270263671875	 10.699716567993164	 -819.3379516601562
v 1618.796875	 10.707381248474121	 -819.6851196289062
v 1620.7667236328125	 10.715044975280762	 -820.03173828125
v 1622.7366943359375	 10.722711563110352	 -820.3779296875
v 1624.70654296875	 10.726551055908203	 -820.7237548828125
v 1626.676513671875	 10.734149932861328	 -821.0694580078125
v 1628.646484375	 10.741815567016602	 -821.4150390625
v 1630.616455078125	 10.749480247497559	 -821.7605590820312
v 1632.586181640625	 10.757144927978516	 -822.1062622070312
v 1634.55615234375	 10.764809608459473	 -822.4522094726562
v 1636.5257568359375	 10.77247428894043	 -822.798095703125
v 1638.4952392578125	 10.780137062072754	 -823.1432495117188
v 1640.46533203125	 10.787802696228027	 -823.4869995117188
v 1642.436279296875	 10.795472145080566	 -823.8287963867188
v 1644.40576171875	 10.803789138793945	 -824.1678466796875
v 1646.3785400390625	 10.810811042785645	 -824.5048217773438
v 1648.348876953125	 10.82038402557373	 -824.838623046875
v 1650.3203125	 10.82739543914795	 -825.1700439453125
v 1652.292724609375	 10.837715148925781	 -825.4990234375
v 1654.265625	 10.84642505645752	 -825.82568359375
v 1656.2388916015625	 10.85696029663086	 -826.1502685546875
v 1658.214111328125	 10.86259651184082	 -826.47314453125
v 1660.188232421875	 10.87232780456543	 -826.7940673828125
v 1662.160400390625	 10.883893013000488	 -827.1129760742188
v 1664.1392822265625	 10.891592025756836	 -827.4314575195312
v 1666.1107177734375	 10.899264335632324	 -827.7474365234375
v 1668.0882568359375	 10.910849571228027	 -828.0632934570312
v 1670.06201171875	 10.918529510498047	 -828.3775024414062
v 1672.037841796875	 10.92636489868164	 -828.6910400390625
v 1674.014404296875	 10.937799453735352	 -829.0037841796875
v 1675.989501953125	 10.945484161376953	 -829.3154296875
v 1677.965576171875	 10.956930160522461	 -829.62646484375
v 1679.94189453125	 10.964754104614258	 -829.9365844726562
v 1681.918212890625	 10.976016998291016	 -830.2459716796875
v 1683.894287109375	 10.984024047851562	 -830.554443359375
v 1685.8707275390625	 10.995101928710938	 -830.862060546875
v 1687.84814453125	 11.003957748413086	 -831.1689453125
v 1689.823486328125	 11.014190673828125	 -831.474609375
v 1691.8018798828125	 11.025609016418457	 -831.7796630859375
v 1693.778564453125	 11.034157752990723	 -832.0833740234375
v 1695.756103515625	 11.043354034423828	 -832.3859252929688
v 1697.733154296875	 11.052218437194824	 -832.68701171875
v 1699.712646484375	 11.063911437988281	 -832.98681640625
v 1701.68798828125	 11.072715759277344	 -833.2840576171875
v 1703.664306640625	 11.080406188964844	 -833.5787963867188
v 1705.6424560546875	 11.091994285583496	 -833.8704223632812
v 1707.6259765625	 11.099712371826172	 -834.1580810546875
v 1709.603759765625	 11.107407569885254	 -834.438232421875
v 1711.5841064453125	 11.1151123046875	 -834.7086181640625
v 1713.568359375	 11.122834205627441	 -834.9619750976562
v 1715.555419921875	 11.12840461730957	 -835.1773681640625
v 1717.552490234375	 11.132295608520508	 -835.2510375976562
v 1719.535400390625	 11.132295608520508	 -835.00927734375
v 1721.4832763671875	 11.135902404785156	 -834.5564575195312
v 1723.4140625	 11.145580291748047	 -834.03515625
v 1725.322021484375	 11.147859573364258	 -833.4352416992188
v 1727.1807861328125	 11.14396858215332	 -832.6990966796875
v 1728.9342041015625	 11.14396858215332	 -831.7409057617188
v 1730.54052734375	 11.14396858215332	 -830.5516357421875
v 1732.027099609375	 11.151021957397461	 -829.2142944335938
v 1733.452880859375	 11.155641555786133	 -827.8118896484375
v 1734.86376953125	 11.163424491882324	 -826.3942260742188
v 1736.277587890625	 11.1712064743042	 -824.9794311523438
v 1737.6962890625	 11.175591468811035	 -823.5694580078125
v 1739.12646484375	 11.18659496307373	 -822.1717529296875
v 1740.62939453125	 11.19367790222168	 -820.8541870117188
v 1742.3221435546875	 11.203588485717773	 -819.7939453125
v 1744.14453125	 11.210679054260254	 -818.9720458984375
v 1746.003662109375	 11.214007377624512	 -818.234619140625
v 1747.8665771484375	 11.2106351852417	 -817.50732421875
v 1749.761474609375	 11.202754974365234	 -816.869384765625
v 1751.710693359375	 11.191786766052246	 -816.426513671875
v 1753.6937255859375	 11.184070587158203	 -816.1707763671875
v 1755.689208984375	 11.178988456726074	 -816.0400390625
v 1757.688720703125	 11.181668281555176	 -815.9903564453125
v 1759.688720703125	 11.192130088806152	 -815.9942016601562
v 1761.688232421875	 11.20112133026123	 -816.038818359375
v 1763.6865234375	 11.206225395202637	 -816.1213989257812
v 1765.6798095703125	 11.210116386413574	 -816.2799072265625
v 1767.6531982421875	 11.210116386413574	 -816.599365234375
v 1769.584716796875	 11.243460655212402	 -817.115234375
v 1771.4720458984375	 11.276144981384277	 -817.7763061523438
v 1773.33203125	 11.297703742980957	 -818.5096435546875
v 1775.179931640625	 11.298543930053711	 -819.2741088867188
v 1777.0240478515625	 11.299049377441406	 -820.048095703125
v 1778.867919921875	 11.293375015258789	 -820.8235473632812
v 1780.7108154296875	 11.295791625976562	 -821.600830078125
v 1782.5523681640625	 11.306163787841797	 -822.3812255859375
v 1784.3922119140625	 11.328886032104492	 -823.1657104492188
v 1786.229736328125	 11.345958709716797	 -823.9555053710938
v 1788.064208984375	 11.343594551086426	 -824.7520751953125
v 1789.89501953125	 11.335054397583008	 -825.5572509765625
v 1791.721923828125	 11.338728904724121	 -826.370849609375
v 1793.5460205078125	 11.344808578491211	 -827.192138671875
v 1795.366455078125	 11.335594177246094	 -828.0192260742188
v 1797.185546875	 11.320791244506836	 -828.850830078125
v 1799.004150390625	 11.312906265258789	 -829.6842041015625
v 1800.8233642578125	 11.320379257202148	 -830.5140380859375
v 1802.6495361328125	 11.317813873291016	 -831.3304443359375
v 1804.4913330078125	 11.320833206176758	 -832.1093139648438
v 1806.3709716796875	 11.382142066955566	 -832.7886962890625
v 1808.322998046875	 11.502107620239258	 -833.1966552734375
v 1810.298828125	 11.572577476501465	 -832.99462890625
v 1812.1258544921875	 11.571813583374023	 -832.1893310546875
v 1813.858642578125	 11.570707321166992	 -831.19091796875
v 1815.5687255859375	 11.52656364440918	 -830.1544189453125
v 1817.287841796875	 11.471891403198242	 -829.1331787109375
v 1819.033447265625	 11.408904075622559	 -828.158935546875
v 1820.8330078125	 11.329147338867188	 -827.2899780273438
v 1822.72607421875	 11.283641815185547	 -826.6519165039062
v 1824.676513671875	 11.325995445251465	 -826.2103881835938
v 1826.646484375	 11.363527297973633	 -825.866455078125
v 1828.627197265625	 11.381721496582031	 -825.5938110351562
v 1830.6162109375	 11.414278030395508	 -825.3884887695312
v 1832.612060546875	 11.448193550109863	 -825.262451171875
v 1834.611572265625	 11.459980010986328	 -825.2149658203125
v 1836.6109619140625	 11.451738357543945	 -825.23583984375
v 1838.6097412109375	 11.452253341674805	 -825.3095703125
v 1840.60693359375	 11.463223457336426	 -825.417236328125
v 1842.6025390625	 11.481531143188477	 -825.5482788085938
v 1844.59716796875	 11.499195098876953	 -825.696044921875
v 1846.5914306640625	 11.50527572631836	 -825.8558959960938
v 1848.58349609375	 11.51209545135498	 -826.025146484375
v 1850.57421875	 11.51998519897461	 -826.2120361328125
v 1852.562744140625	 11.534521102905273	 -826.4208374023438
v 1854.54931640625	 11.562971115112305	 -826.646240234375
v 1856.534912109375	 11.580465316772461	 -826.8815307617188
v 1858.52099609375	 11.597521781921387	 -827.1226806640625
v 1860.505615234375	 11.617293357849121	 -827.3670043945312
v 1862.49169921875	 11.629875183105469	 -827.6138305664062
v 1864.475341796875	 11.64864730834961	 -827.8618774414062
v 1866.4595947265625	 11.669002532958984	 -828.1112060546875
v 1868.44384765625	 11.68373966217041	 -828.361328125
v 1870.4283447265625	 11.695067405700684	 -828.6121215820312
v 1872.412841796875	 11.710694313049316	 -828.8634033203125
v 1874.3966064453125	 11.729818344116211	 -829.1148681640625
v 1876.3804931640625	 11.744670867919922	 -829.3665771484375
v 1878.36474609375	 11.761528015136719	 -829.6183471679688
v 1880.3486328125	 11.790567398071289	 -829.8699951171875
v 1882.33251953125	 11.809688568115234	 -830.1212768554688
v 1884.31689453125	 11.819347381591797	 -830.3722534179688
v 1886.30078125	 11.827460289001465	 -830.62255859375
v 1888.28515625	 11.844293594360352	 -830.8721923828125
v 1890.2694091796875	 11.867900848388672	 -831.1209716796875
v 1892.253662109375	 11.90176010131836	 -831.368896484375
v 1894.2388916015625	 11.933650016784668	 -831.6158447265625
v 1896.22314453125	 11.95785903930664	 -831.8616943359375
v 1898.207763671875	 11.974793434143066	 -832.1063842773438
v 1900.1927490234375	 11.989828109741211	 -832.3499755859375
v 1902.17822265625	 12.004557609558105	 -832.5924682617188
v 1904.1640625	 12.017496109008789	 -832.833740234375
v 1906.149169921875	 12.027822494506836	 -833.0739135742188
v 1908.134521484375	 12.04140853881836	 -833.3134155273438
v 1910.119873046875	 12.055466651916504	 -833.5523681640625
v 1912.1055908203125	 12.076786994934082	 -833.791015625
v 1914.09130859375	 12.09433650970459	 -834.0294799804688
v 1916.076904296875	 12.11524486541748	 -834.2679443359375
v 1918.0625	 12.137057304382324	 -834.5066528320312
v 1920.0479736328125	 12.163619995117188	 -834.7456665039062
v 1922.033447265625	 12.207365989685059	 -834.9852294921875
v 1924.018798828125	 12.24802303314209	 -835.2254028320312
v 1926.004150390625	 12.273224830627441	 -835.4663696289062
v 1927.9891357421875	 12.293530464172363	 -835.7083129882812
v 1929.97412109375	 12.304245948791504	 -835.951416015625
v 1931.9588623046875	 12.338407516479492	 -836.19580078125
v 1933.943359375	 12.388470649719238	 -836.441650390625
v 1935.927734375	 12.439594268798828	 -836.6891479492188
v 1937.911865234375	 12.489177703857422	 -836.9381103515625
v 1939.895751953125	 12.526244163513184	 -837.1883544921875
v 1941.87939453125	 12.56839656829834	 -837.439697265625
v 1943.863037109375	 12.605618476867676	 -837.6917724609375
v 1945.846435546875	 12.640167236328125	 -837.9444580078125
v 1947.829833984375	 12.686483383178711	 -838.197509765625
v 1949.813232421875	 12.736774444580078	 -838.45068359375
v 1951.796630859375	 12.793572425842285	 -838.70361328125
v 1953.780029296875	 12.85409927368164	 -838.9561767578125
v 1955.763671875	 12.903100967407227	 -839.2081298828125
v 1957.7471923828125	 12.955155372619629	 -839.4591064453125
v 1959.73095703125	 13.006115913391113	 -839.708984375
v 1961.7147216796875	 13.058100700378418	 -839.9573974609375
v 1963.69873046875	 13.098320007324219	 -840.2042236328125
v 1965.68310546875	 13.156169891357422	 -840.4492797851562
v 1967.66748046875	 13.229002952575684	 -840.6922607421875
v 1969.65234375	 13.286456108093262	 -840.9332275390625
v 1971.63720703125	 13.35151195526123	 -841.1722412109375
v 1973.622314453125	 13.419328689575195	 -841.4093017578125
v 1975.607666015625	 13.497343063354492	 -841.64453125
v 1977.59326171875	 13.581250190734863	 -841.8778076171875
v 1979.5791015625	 13.65640926361084	 -842.1093139648438
v 1981.565185546875	 13.716469764709473	 -842.3388671875
v 1983.551513671875	 13.762941360473633	 -842.5665893554688
v 1985.5382080078125	 13.792685508728027	 -842.7923583984375
v 1987.52490234375	 13.81886100769043	 -843.01611328125
v 1989.51171875	 13.84705638885498	 -843.2376708984375
v 1991.49853515625	 13.88862419128418	 -843.4570922851562
v 1993.4852294921875	 13.940918922424316	 -843.6741333007812
v 1995.4736328125	 14.00015640258789	 -843.8888549804688
v 1997.460693359375	 14.06786823272705	 -844.1005859375
v 1999.448974609375	 14.136503219604492	 -844.3095703125
v 2001.436279296875	 14.220645904541016	 -844.5155029296875
v 2003.425537109375	 14.295500755310059	 -844.7186279296875
v 2005.4140625	 14.373075485229492	 -844.9185791015625
v 2007.4027099609375	 14.448770523071289	 -845.1156616210938
v 2009.3916015625	 14.524667739868164	 -845.3099365234375
v 2011.381103515625	 14.613091468811035	 -845.5015258789062
v 2013.37060546875	 14.692145347595215	 -845.6907958984375
v 2015.3603515625	 14.764403343200684	 -845.8780517578125
v 2017.35009765625	 14.850069999694824	 -846.0638427734375
v 2019.340087890625	 14.931543350219727	 -846.24853515625
v 2021.33056640625	 15.00949764251709	 -846.4322509765625
v 2023.32080078125	 15.085525512695312	 -846.614013671875
v 2025.311767578125	 15.165491104125977	 -846.793212890625
v 2027.30224609375	 15.2366304397583	 -846.96875
v 2029.2943115234375	 15.301088333129883	 -847.1394653320312
v 2031.2864990234375	 15.354735374450684	 -847.3037109375
v 2033.279052734375	 15.4114990234375	 -847.4593505859375
v 2035.2720947265625	 15.47873592376709	 -847.6031494140625
v 2037.26708984375	 15.549445152282715	 -847.7318115234375
v 2039.2620849609375	 15.635405540466309	 -847.8471069335938
v 2041.2587890625	 15.721471786499023	 -847.9554443359375
v 2043.2552490234375	 15.785533905029297	 -848.0692749023438
v 2045.25	 15.851231575012207	 -848.2119140625
v 2047.236328125	 15.90934944152832	 -848.421630859375
v 2049.20556640625	 15.922083854675293	 -848.7177734375
v 2051.154052734375	 15.91098690032959	 -849.0877075195312
l 1 2
l 2 3
l 3 4
l 4 5
l 5 6
l 6 7
l 7 8
l 8 9
l 9 10
l 10 11
l 11 12
l 12 13
l 13 14
l 14 15
l 15 16
l 16 17
l 17 18
l 18 19
l 19 20
l 20 21
l 21 22
l 22 23
l 23 24
l 24 25
l 25 26
l 26 27
l 27 28
l 28 29
l 29 30
l 30 31
l 31 32
l 32 33
l 33 34
l 34 35
l 35 36
l 36 37
l 37 38
l 38 39
l 39 40
l 40 41
l 41 42
l 42 43
l 43 44
l 44 45
l 45 46
l 46 47
l 47 48
l 48 49
l 49 50
l 50 51
l 51 52
l 52 53
l 53 54
l 54 55
l 55 56
l 56 57
l 57 58
l 58 59
l 59 60
l 60 61
l 61 62
l 62 63
l 63 64
l 64 65
l 65 66
l 66 67
l 67 68
l 68 69
l 69 70
l 70 71
l 71 72
l 72 73
l 73 74
l 74 75
l 75 76
l 76 77
l 77 78
l 78 79
l 79 80
l 80 81
l 81 82
l 82 83
l 83 84
l 84 85
l 85 86
l 86 87
l 87 88
l 88 89
l 89 90
l 90 91
l 91 92
l 92 93
l 93 94
l 94 95
l 95 96
l 96 97
l 97 98
l 98 99
l 99 100
l 100 101
l 101 102
l 102 103
l 103 104
l 104 105
l 105 106
l 106 107
l 107 108
l 108 109
l 109 110
l 110 111
l 111 112
l 112 113
l 113 114
l 114 115
l 115 116
l 116 117
l 117 118
l 118 119
l 119 120
l 120 121
l 121 122
l 122 123
l 123 124
l 124 125
l 125 126
l 126 127
l 127 128
l 128 129
l 129 130
l 130 131
l 131 132
l 132 133
l 133 134
l 134 135
l 135 136
l 136 137
l 137 138
l 138 139
l 139 140
l 140 141
l 141 142
l 142 143
l 143 144
l 144 145
l 145 146
l 146 147
l 147 148
l 148 149
l 149 150
l 150 151
l 151 152
l 152 153
l 153 154
l 154 155
l 155 156
l 156 157
l 157 158
l 158 159
l 159 160
l 160 161
l 161 162
l 162 163
l 163 164
l 164 165
l 165 166
l 166 167
l 167 168
l 168 169
l 169 170
l 170 171
l 171 172
l 172 173
l 173 174
l 174 175
l 175 176
l 176 177
l 177 178
l 178 179
l 179 180
l 180 181
l 181 182
l 182 183
l 183 184
l 184 185
l 185 186
l 186 187
l 187 188
l 188 189
l 189 190
l 190 191
l 191 192
l 192 193
l 193 194
l 194 195
l 195 196
l 196 197
l 197 198
l 198 199
l 199 200
l 200 201
l 201 202
l 202 203
l 203 204
l 204 205
l 205 206
l 206 207
l 207 208
l 208 209
l 209 210
l 210 211
l 211 212
l 212 213
l 213 214
l 214 215
l 215 216
l 216 217
l 217 218
l 218 219
l 219 220
l 220 221
l 221 222
l 222 223
l 223 224
l 224 225
l 225 226
l 226 227
l 227 228
l 228 229
l 229 230
l 230 231
l 231 232
l 232 233
l 233 234
l 234 235
l 235 236
l 236 237
l 237 238
l 238 239
l 239 240
l 240 241
l 241 242
l 242 243
l 243 244
l 244 245
l 245 246
l 246 247
l 247 248
l 248 249
l 249 250
l 250 251
l 251 252
l 252 253
l 253 254
l 254 255
l 255 256
l 256 257
l 257 258
l 258 259
l 259 260
l 260 261
l 261 262
l 262 263
l 263 264
l 264 265
l 265 266
l 266 267
l 267 268
l 268 269
l 269 270
l 270 271
l 271 272
l 272 273
l 273 274
l 274 275
l 275 276
l 276 277
l 277 278
l 278 279
l 279 280
l 280 281
l 281 282
l 282 283
l 283 284
l 284 285
l 285 286
l 286 287
l 287 288
l 288 289
l 289 290
l 290 291
l 291 292
l 292 293
l 293 294
l 294 295
l 295 296
l 296 297
l 297 298
l 298 299
l 299 300
l 300 301
l 301 302
l 302 303
l 303 304
l 304 305
l 305 306
l 306 307
l 307 308
l 308 309
l 309 310
l 310 311
l 311 312
l 312 313
l 313 314
l 314 315
l 315 316
l 316 317
l 317 318
l 318 319
l 319 320
l 320 321
l 321 322
l 322 323
l 323 324
l 324 325
l 325 326
l 326 327
l 327 328
l 328 329
l 329 330
l 330 331
l 331 332
l 332 333
l 333 334
l 334 335
l 335 336
l 336 337
l 337 338
l 338 339
l 339 340
l 340 341
l 341 342
l 342 343
l 343 344
l 344 345
l 345 346
l 346 347
l 347 348
l 348 349
l 349 350
l 350 351
l 351 352
l 352 353
l 353 354
l 354 355
l 355 356
l 356 357
l 357 358
l 358 359
l 359 360
l 360 361
l 361 362
l 362 363
l 363 364
l 364 365
l 365 366
l 366 367
l 367 368
l 368 369
l 369 370
l 370 371
l 371 372
l 372 373
l 373 374
l 374 375
l 375 376
l 376 377
l 377 378
l 378 379
l 379 380
l 380 381
l 381 382
l 382 383
l 383 384
l 384 385
l 385 386
l 386 387
l 387 388
l 388 389
l 389 390
l 390 391
l 391 392
l 392 393
l 393 394
l 394 395
l 395 396
l 396 397
l 397 398
l 398 399
l 399 400
l 400 401
l 401 402
l 402 403
l 403 404
l 404 405
l 405 406
l 406 407
l 407 408
l 408 409
l 409 410
l 410 411
l 411 412
l 412 413
l 413 414
l 414 415
l 415 416
l 416 417
l 417 418
l 418 419
l 419 420
l 420 421
l 421 422
l 422 423
l 423 424
l 424 425
l 425 426
l 426 427
l 427 428
l 428 429
l 429 430
l 430 431
l 431 432
l 432 433
l 433 434
l 434 435
l 435 436
l 436 437
l 437 438
l 438 439
l 439 440
l 440 441
l 441 442
l 442 443
l 443 444
l 444 445
l 445 446
l 446 447
l 447 448
l 448 449
l 449 450
l 450 451
l 451 452
l 452 453
l 453 454
l 454 455
l 455 456
l 456 457
l 457 458
l 458 459
l 459 460
l 460 461
l 461 462
l 462 463
l 463 464
l 464 465
l 465 466
l 466 467
l 467 468
l 468 469
l 469 470
l 470 471
l 471 472
l 472 473
l 473 474
l 474 475
l 475 476
l 476 477
l 477 478
l 478 479
l 479 480
l 480 481
l 481 482
l 482 483
l 483 484
l 484 485
l 485 486
l 486 487
l 487 488
l 488 489
l 489 490
l 490 491
l 491 492
l 492 493
l 493 494
l 494 495
l 495 496
l 496 497
l 497 498
l 498 499
l 499 500
l 500 501
l 501 502
l 502 503
l 503 504
l 504 505
l 505 506
l 506 507
l 507 508
l 508 509
l 509 510
l 510 511
l 511 512
l 512 513
l 513 514
l 514 515
l 515 516
l 516 517
l 517 518
l 518 519
l 519 520
l 520 521
l 521 522
l 522 523
l 523 524
l 524 525
l 525 526
l 526 527
l 527 528
l 528 529
l 529 530
l 530 531
l 531 532
l 532 533
l 533 534
l 534 535
l 535 536
l 536 537
l 537 538
l 538 539
l 539 540
l 540 541
l 541 542
l 542 543
l 543 544
l 544 545
l 545 546
l 546 547
l 547 548
l 548 549
l 549 550
l 550 551
l 551 552
l 552 553
l 553 554
l 554 555
l 555 556
l 556 557
l 557 558
l 558 559
l 559 560
l 560 561
l 561 562
l 562 563
l 563 564
l 564 565
l 565 566
l 566 567
l 567 568
l 568 569
l 569 570
l 570 571
l 571 572
l 572 573
l 573 574
l 574 575
l 575 576
l 576 577
l 577 578
l 578 579
l 579 580
l 580 581
l 581 582
l 582 583
l 583 584
l 584 585
l 585 586
l 586 587
l 587 588
l 588 589
l 589 590
l 590 591
l 591 592
l 592 593
l 593 594
l 594 595
l 595 596
l 596 597
l 597 598
l 598 599
l 599 600
l 600 601
l 601 602
l 602 603
l 603 604
l 604 605
l 605 606
l 606 607
l 607 608
l 608 609
l 609 610
l 610 611
l 611 612
l 612 613
l 613 614
l 614 615
l 615 616
l 616 617
l 617 618
l 618 619
l 619 620
l 620 621
l 621 622
l 622 623
l 623 624
l 624 625
l 625 626
l 626 627
l 627 628
l 628 629
l 629 630
l 630 631
l 631 632
l 632 633
l 633 634
l 634 635
l 635 636
l 636 637
l 637 638
l 638 639
l 639 640
l 640 641
l 641 642
l 642 643
l 643 644
l 644 645
l 645 646
l 646 647
l 647 648
l 648 649
l 649 650
l 650 651
l 651 652
l 652 653
l 653 654
l 654 655
l 655 656
l 656 657
l 657 658
l 658 659
l 659 660
l 660 661
l 661 662
l 662 663
l 663 664
l 664 665
l 665 666
l 666 667
l 667 668
l 668 669
l 669 670
l 670 671
l 671 672
l 672 673
l 673 674
l 674 675
l 675 676
l 676 677
l 677 678
l 678 679
l 679 680
l 680 681
l 681 682
l 682 683
l 683 684
l 684 685
l 685 686
l 686 687
l 687 688
l 688 689
l 689 690
l 690 691
l 691 692
l 692 693
l 693 694
l 694 695
l 695 696
l 696 697
l 697 698
l 698 699
l 699 700
l 700 701
l 701 702
l 702 703
l 703 704
l 704 705
l 705 706
l 706 707
l 707 708
l 708 709
l 709 710
l 710 711
l 711 712
l 712 713
l 713 714
l 714 715
l 715 716
l 716 717
l 717 718
l 718 719
l 719 720
l 720 721
l 721 722
l 722 723
l 723 724
l 724 725
l 725 726
l 726 727
l 727 728
l 728 729
l 729 730
l 730 731
l 731 732
l 732 733
l 733 734
l 734 735
l 735 736
l 736 737
l 737 738
l 738 739
l 739 740
l 740 741
l 741 742
l 742 743
l 743 744
l 744 745
l 745 746
l 746 747
l 747 748
l 748 749
l 749 750
l 750 751
l 751 752
l 752 753
l 753 754
l 754 755
l 755 756
l 756 757
l 757 758
l 758 759
l 759 760
l 760 761
l 761 762
l 762 763
l 763 764
l 764 765
l 765 766
l 766 767
l 767 768
l 768 769
l 769 770
l 770 771
l 771 772
l 772 773
l 773 774
l 774 775
l 775 776
l 776 777
l 777 778
l 778 779
l 779 780
l 780 781
l 781 782
l 782 783
l 783 784
l 784 785
l 785 786
l 786 787
l 787 788
l 788 789
l 789 790
l 790 791
l 791 792
l 792 793
l 793 794
l 794 795
l 795 796
l 796 797
l 797 798
l 798 799
l 799 800
l 800 801
l 801 802
l 802 803
l 803 804
l 804 805
l 805 806
l 806 807
l 807 808
l 808 809
l 809 810
l 810 811
l 811 812
l 812 813
l 813 814
l 814 815
l 815 816
l 816 817
l 817 818
l 818 819
l 819 820
l 820 821
l 821 822
l 822 823
l 823 824
l 824 825
l 825 826
l 826 827
l 827 828
l 828 829
l 829 830
l 830 831
l 831 832
l 832 833
l 833 834
l 834 835
l 835 836
l 836 837
l 837 838
l 838 839
l 839 840
l 840 841
l 841 842
l 842 843
l 843 844
l 844 845
l 845 846
l 846 847
l 847 848
l 848 849
l 849 850
l 850 851
l 851 852
l 852 853
l 853 854
l 854 855
l 855 856
l 856 857
l 857 858
l 858 859
l 859 860
l 860 861
l 861 862
l 862 863
l 863 864
l 864 865
l 865 866
l 866 867
l 867 868
l 868 869
l 869 870
l 870 871
l 871 872
l 872 873
l 873 874
l 874 875
l 875 876
l 876 877
l 877 878
l 878 879
l 879 880
l 880 881
l 881 882
l 882 883
l 883 884
l 884 885
l 885 886
l 886 887
l 887 888
l 888 889
l 889 890
l 890 891
l 891 892
l 892 893
l 893 894
l 894 895
l 895 896
l 896 897
l 897 898
l 898 899
l 899 900
l 900 901
l 901 902
l 902 903
l 903 904
l 904 905
l 905 906
l 906 907
l 907 908
l 908 909
l 909 910
l 910 911
l 911 912
l 912 913
l 913 914
l 914 915
l 915 916
l 916 917
l 917 918
l 918 919
l 919 920
l 920 921
l 921 922
l 922 923
l 923 924
l 924 925
l 925 926
l 926 927
l 927 928
l 928 929
l 929 930
l 930 931
l 931 932
l 932 933
l 933 934
l 934 935
l 935 936
l 936 937
l 937 938
l 938 939
l 939 940
l 940 941
l 941 942
l 942 943
l 943 944
l 944 945
l 945 946
l 946 947
l 947 948
l 948 949
l 949 950
l 950 951
l 951 952
l 952 953
l 953 954
l 954 955
l 955 956
l 956 957
l 957 958
l 958 959
l 959 960
l 960 961
l 961 962
l 962 963
l 963 964
l 964 965
l 965 966
l 966 967
l 967 968
