# GE Spline Export spline_360
v 973.421630859375	 6.7638373374938965	 -1525.63427734375
v 972.4430541992188	 6.737741470336914	 -1525.429443359375
v 971.4857788085938	 6.717058181762695	 -1525.1424560546875
v 970.57421875	 6.729511260986328	 -1524.734375
v 969.7228393554688	 6.7988128662109375	 -1524.211181640625
v 968.9327392578125	 6.8653106689453125	 -1523.5999755859375
v 968.194091796875	 6.7908244132995605	 -1522.9266357421875
v 967.4981079101562	 6.646714687347412	 -1522.2105712890625
v 966.836181640625	 6.531132221221924	 -1521.4619140625
v 966.2034912109375	 6.4667510986328125	 -1520.68896484375
v 965.5948486328125	 6.420342922210693	 -1519.895751953125
v 965.007568359375	 6.380031585693359	 -1519.0867919921875
v 964.439208984375	 6.364489555358887	 -1518.26513671875
v 963.8871459960938	 6.3562211990356445	 -1517.432373046875
v 963.34912109375	 6.336661338806152	 -1516.58935546875
v 962.8228149414062	 6.294663429260254	 -1515.7398681640625
v 962.3045654296875	 6.233093738555908	 -1514.8841552734375
v 961.7933349609375	 6.1829938888549805	 -1514.0255126953125
v 961.2864990234375	 6.148228645324707	 -1513.163818359375
v 960.7828369140625	 6.127409934997559	 -1512.300048828125
v 960.281005859375	 6.115405559539795	 -1511.4349365234375
v 959.7799682617188	 6.104597568511963	 -1510.5693359375
v 959.2788696289062	 6.092626571655273	 -1509.7042236328125
v 958.7766723632812	 6.078895092010498	 -1508.8397216796875
v 958.2722778320312	 6.060737609863281	 -1507.976318359375
v 957.7649536132812	 6.048284530639648	 -1507.114501953125
v 957.2536010742188	 6.041871547698975	 -1506.2548828125
v 956.737548828125	 6.035547733306885	 -1505.398193359375
v 956.2158203125	 6.030198574066162	 -1504.545166015625
v 955.6873779296875	 6.029702663421631	 -1503.696044921875
v 955.1521606445312	 6.0338358879089355	 -1502.8515625
v 954.6094970703125	 6.0410990715026855	 -1502.011474609375
v 954.0592041015625	 6.04646110534668	 -1501.1768798828125
v 953.50048828125	 6.063590049743652	 -1500.3475341796875
v 952.9331665039062	 6.080842971801758	 -1499.524169921875
v 952.3565673828125	 6.109417915344238	 -1498.707275390625
v 951.770263671875	 6.141773700714111	 -1497.8974609375
v 951.1737060546875	 6.191040515899658	 -1497.095458984375
v 950.5660400390625	 6.237582206726074	 -1496.3016357421875
v 949.9467163085938	 6.283507823944092	 -1495.516845703125
v 949.3151245117188	 6.329425811767578	 -1494.7423095703125
v 948.6700439453125	 6.386072635650635	 -1493.978515625
v 948.010986328125	 6.4549384117126465	 -1493.226806640625
v 947.337158203125	 6.538967609405518	 -1492.489013671875
v 946.6475219726562	 6.63372802734375	 -1491.765380859375
v 945.9422607421875	 6.737487316131592	 -1491.057373046875
v 945.220947265625	 6.838996410369873	 -1490.364990234375
v 944.4844360351562	 6.924679756164551	 -1489.6895751953125
v 943.7330322265625	 6.995479106903076	 -1489.030517578125
v 942.967529296875	 7.045698642730713	 -1488.3873291015625
v 942.1895751953125	 7.075629234313965	 -1487.7603759765625
v 941.3994140625	 7.085981369018555	 -1487.147705078125
v 940.5987548828125	 7.057096481323242	 -1486.548828125
v 939.7890625	 6.988707542419434	 -1485.9630126953125
v 938.970703125	 6.871296405792236	 -1485.3880615234375
v 938.145263671875	 6.765582084655762	 -1484.82373046875
v 937.3135375976562	 6.7251176834106445	 -1484.268310546875
v 936.4767456054688	 6.734053611755371	 -1483.7208251953125
v 935.6354370117188	 6.7783098220825195	 -1483.179931640625
v 934.7906494140625	 6.830482006072998	 -1482.6451416015625
v 933.9427490234375	 6.880789279937744	 -1482.115234375
v 933.09228515625	 6.925558090209961	 -1481.589599609375
v 932.2393798828125	 6.953383445739746	 -1481.0673828125
v 931.3845825195312	 6.965193271636963	 -1480.54833984375
v 930.5282592773438	 6.968288421630859	 -1480.031982421875
v 929.67041015625	 6.974605560302734	 -1479.517333984375
v 928.81201171875	 6.985202312469482	 -1479.004638671875
v 927.95263671875	 6.995322227478027	 -1478.4931640625
v 927.0927734375	 6.9989495277404785	 -1477.982666015625
v 926.232666015625	 6.989572048187256	 -1477.47265625
v 925.372314453125	 6.962497234344482	 -1476.962646484375
v 924.5120849609375	 6.917887210845947	 -1476.45263671875
v 923.6521606445312	 6.87457799911499	 -1475.942138671875
v 922.7929077148438	 6.846710205078125	 -1475.4306640625
v 921.9342651367188	 6.839896202087402	 -1474.91796875
v 921.076416015625	 6.863358020782471	 -1474.404052734375
v 920.219482421875	 6.896735191345215	 -1473.888427734375
v 919.3636474609375	 6.924335479736328	 -1473.37109375
v 918.5089111328125	 6.9384050369262695	 -1472.8521728515625
v 917.6554565429688	 6.9387526512146	 -1472.3309326171875
v 916.8032836914062	 6.929749965667725	 -1471.8077392578125
v 915.9524536132812	 6.9140214920043945	 -1471.2818603515625
v 915.1034545898438	 6.892035961151123	 -1470.7532958984375
v 914.25634765625	 6.879391670227051	 -1470.221923828125
v 913.4113159179688	 6.875504493713379	 -1469.6875
v 912.5684814453125	 6.875154972076416	 -1469.1495361328125
v 911.72802734375	 6.871578216552734	 -1468.607421875
v 910.890380859375	 6.869981288909912	 -1468.06103515625
v 910.055908203125	 6.879361152648926	 -1467.510009765625
v 909.2247314453125	 6.895150661468506	 -1466.95361328125
v 908.3975830078125	 6.913834571838379	 -1466.3916015625
v 907.5751953125	 6.930065155029297	 -1465.8228759765625
v 906.7579345703125	 6.9377241134643555	 -1465.2470703125
v 905.9459228515625	 6.940322399139404	 -1464.662841796875
v 905.1406860351562	 6.938014984130859	 -1464.06982421875
v 904.3431396484375	 6.935187816619873	 -1463.4671630859375
v 903.5537109375	 6.931524753570557	 -1462.852783203125
v 902.7742919921875	 6.930335521697998	 -1462.226318359375
v 902.0068359375	 6.927735328674316	 -1461.585693359375
v 901.2528076171875	 6.924147129058838	 -1460.928955078125
v 900.5152587890625	 6.920292377471924	 -1460.25390625
v 899.7973022460938	 6.920009136199951	 -1459.5576171875
v 899.1033935546875	 6.922179222106934	 -1458.8369140625
v 898.4393310546875	 6.924360275268555	 -1458.0899658203125
v 897.8067626953125	 6.924156188964844	 -1457.3148193359375
v 897.2091064453125	 6.923363208770752	 -1456.5133056640625
v 896.6480712890625	 6.925066947937012	 -1455.68603515625
v 896.1240844726562	 6.928513526916504	 -1454.834228515625
v 895.6370849609375	 6.9343485832214355	 -1453.9608154296875
v 895.1835327148438	 6.943109512329102	 -1453.070068359375
v 894.75830078125	 6.949716091156006	 -1452.1646728515625
v 894.389404296875	 6.955960750579834	 -1451.23583984375
v 894.128173828125	 6.963366508483887	 -1450.271484375
v 894.0093994140625	 6.973459720611572	 -1449.27978515625
v 894.0219116210938	 6.985307216644287	 -1448.2806396484375
v 894.128173828125	 7.000933647155762	 -1447.2861328125
v 894.2958984375	 7.0182318687438965	 -1446.300537109375
v 894.504638671875	 7.035882949829102	 -1445.322998046875
v 894.7418823242188	 7.053769111633301	 -1444.351806640625
v 894.9993896484375	 7.071811676025391	 -1443.3857421875
v 895.2718505859375	 7.08455228805542	 -1442.42333984375
v 895.5553588867188	 7.097827434539795	 -1441.464599609375
v 895.847412109375	 7.110797882080078	 -1440.50830078125
v 896.1458740234375	 7.119068622589111	 -1439.5537109375
v 896.4493408203125	 7.124119281768799	 -1438.6014404296875
v 896.7572021484375	 7.130491733551025	 -1437.649658203125
v 897.068603515625	 7.137722969055176	 -1436.69970703125
v 897.38330078125	 7.145392894744873	 -1435.750244140625
v 897.7008056640625	 7.157951831817627	 -1434.8021240234375
v 898.0211181640625	 7.173544883728027	 -1433.85498046875
v 898.3438720703125	 7.19087028503418	 -1432.908447265625
v 898.669189453125	 7.2108683586120605	 -1431.962890625
v 898.9967041015625	 7.236878871917725	 -1431.01806640625
v 899.3265380859375	 7.261512756347656	 -1430.0740966796875
v 899.6591186523438	 7.282739639282227	 -1429.130859375
v 899.993896484375	 7.303711891174316	 -1428.189208984375
v 900.3317260742188	 7.321700572967529	 -1427.247802734375
v 900.6722412109375	 7.33500862121582	 -1426.3076171875
v 901.01611328125	 7.35067892074585	 -1425.36865234375
v 901.3628540039062	 7.3684282302856445	 -1424.431396484375
v 901.713134765625	 7.388425350189209	 -1423.4945068359375
v 902.0667724609375	 7.413975238800049	 -1422.559326171875
v 902.4237060546875	 7.437351703643799	 -1421.62548828125
v 902.7838134765625	 7.461584568023682	 -1420.6927490234375
v 903.1470947265625	 7.481171607971191	 -1419.76123046875
v 903.51318359375	 7.492806911468506	 -1418.83056640625
v 903.8853149414062	 7.507801055908203	 -1417.9024658203125
v 904.2680053710938	 7.5224103927612305	 -1416.978759765625
v 904.666015625	 7.53082799911499	 -1416.061279296875
v 905.0830688476562	 7.529896259307861	 -1415.152587890625
v 905.522216796875	 7.5237836837768555	 -1414.2542724609375
v 905.984375	 7.518784523010254	 -1413.367431640625
v 906.4695434570312	 7.508903980255127	 -1412.4931640625
v 906.9757080078125	 7.506729602813721	 -1411.630859375
v 907.4989624023438	 7.497004985809326	 -1410.778564453125
v 908.0358276367188	 7.488875865936279	 -1409.934814453125
v 908.5838623046875	 7.465660095214844	 -1409.0985107421875
v 909.1412353515625	 7.425546169281006	 -1408.2681884765625
v 909.7064819335938	 7.360612869262695	 -1407.443115234375
v 910.27783203125	 7.313960075378418	 -1406.622314453125
v 910.8543701171875	 7.3309760093688965	 -1405.805419921875
v 911.43505859375	 7.447088718414307	 -1404.9912109375
v 912.01904296875	 7.578005313873291	 -1404.1793212890625
v 912.6046752929688	 7.666958808898926	 -1403.368896484375
v 913.1904296875	 7.704311370849609	 -1402.558349609375
v 913.7750854492188	 7.708978652954102	 -1401.747314453125
v 914.3568725585938	 7.697480201721191	 -1400.93408203125
v 914.9342651367188	 7.686087608337402	 -1400.117431640625
v 915.5059814453125	 7.672338962554932	 -1399.2969970703125
v 916.06982421875	 7.669687747955322	 -1398.4713134765625
v 916.6243286132812	 7.664840221405029	 -1397.6390380859375
v 917.1676025390625	 7.66015625	 -1396.7996826171875
v 917.697021484375	 7.643482685089111	 -1395.951171875
v 918.2123413085938	 7.626436233520508	 -1395.09423828125
v 918.7138061523438	 7.618241786956787	 -1394.22900390625
v 919.2021484375	 7.619771480560303	 -1393.3564453125
v 919.6781005859375	 7.626947402954102	 -1392.47705078125
v 920.1425170898438	 7.638641357421875	 -1391.59130859375
v 920.595947265625	 7.63873815536499	 -1390.7001953125
v 921.039794921875	 7.637636184692383	 -1389.8037109375
v 921.4747314453125	 7.62025785446167	 -1388.9034423828125
v 921.902099609375	 7.607681751251221	 -1387.9993896484375
v 922.3234252929688	 7.589317321777344	 -1387.0924072265625
v 922.7403564453125	 7.575642108917236	 -1386.1834716796875
v 923.1552734375	 7.569127082824707	 -1385.273681640625
v 923.5704345703125	 7.570393085479736	 -1384.364013671875
v 923.98876953125	 7.587368965148926	 -1383.455810546875
v 924.4132080078125	 7.597819805145264	 -1382.5504150390625
v 924.8463745117188	 7.622447490692139	 -1381.649169921875
v 925.2906494140625	 7.642285346984863	 -1380.75341796875
v 925.745849609375	 7.662290096282959	 -1379.86328125
v 926.20703125	 7.682835578918457	 -1378.975830078125
v 926.668212890625	 7.69817590713501	 -1378.089599609375
v 927.1275634765625	 7.719505310058594	 -1377.201416015625
v 927.5821533203125	 7.733286380767822	 -1376.31103515625
v 928.0316772460938	 7.751765251159668	 -1375.41845703125
v 928.4764404296875	 7.757102966308594	 -1374.521728515625
v 928.9154663085938	 7.7738518714904785	 -1373.6240234375
v 929.3497314453125	 7.782413482666016	 -1372.723876953125
v 929.7799072265625	 7.7892584800720215	 -1371.8211669921875
v 930.2060546875	 7.79740047454834	 -1370.9158935546875
v 930.628662109375	 7.801826477050781	 -1370.0089111328125
v 931.0474853515625	 7.806298732757568	 -1369.1025390625
v 931.46484375	 7.806138038635254	 -1368.192626953125
v 931.879638671875	 7.810391902923584	 -1367.283203125
v 932.2930908203125	 7.812578201293945	 -1366.3721923828125
v 932.7045288085938	 7.81548547744751	 -1365.4613037109375
v 933.1156616210938	 7.825750827789307	 -1364.548095703125
v 933.5244140625	 7.830420970916748	 -1363.636962890625
v 933.9329833984375	 7.84246826171875	 -1362.723876953125
v 934.3408813476562	 7.851034164428711	 -1361.809814453125
v 934.7472534179688	 7.8603644371032715	 -1360.8970947265625
v 935.1533203125	 7.865226745605469	 -1359.9833984375
v 935.55908203125	 7.8661651611328125	 -1359.06884765625
v 935.964111328125	 7.873043060302734	 -1358.154296875
v 936.36865234375	 7.869227886199951	 -1357.240234375
v 936.7727661132812	 7.873192310333252	 -1356.3255615234375
v 937.1767578125	 7.875030517578125	 -1355.41064453125
v 937.5804443359375	 7.872081756591797	 -1354.495361328125
v 937.9837036132812	 7.882018566131592	 -1353.580322265625
v 938.3867797851562	 7.878607749938965	 -1352.665283203125
v 938.7898559570312	 7.884393215179443	 -1351.7501220703125
v 939.1927490234375	 7.897897243499756	 -1350.8348388671875
v 939.5955810546875	 7.904812812805176	 -1349.919677734375
v 939.9982299804688	 7.918193817138672	 -1349.004150390625
v 940.40087890625	 7.917410373687744	 -1348.0888671875
v 940.8037109375	 7.922604560852051	 -1347.173583984375
v 941.20654296875	 7.925887584686279	 -1346.25830078125
v 941.609375	 7.933811187744141	 -1345.343017578125
v 942.0123291015625	 7.954326629638672	 -1344.4278564453125
v 942.4153442382812	 7.956124305725098	 -1343.5128173828125
v 942.8185424804688	 7.973818778991699	 -1342.5977783203125
v 943.221923828125	 7.988520622253418	 -1341.6827392578125
v 943.6256103515625	 8.001383781433105	 -1340.767822265625
v 944.029296875	 8.028956413269043	 -1339.85302734375
v 944.4332275390625	 8.03874683380127	 -1338.938232421875
v 944.8375244140625	 8.060157775878906	 -1338.0238037109375
v 945.241943359375	 8.072845458984375	 -1337.1092529296875
v 945.646728515625	 8.091595649719238	 -1336.19482421875
v 946.0519409179688	 8.11273193359375	 -1335.28076171875
v 946.457275390625	 8.115592956542969	 -1334.366455078125
v 946.8631591796875	 8.143646240234375	 -1333.45263671875
v 947.2694091796875	 8.160721778869629	 -1332.538818359375
v 947.6759033203125	 8.177641868591309	 -1331.6253662109375
v 948.0828857421875	 8.20199203491211	 -1330.7120361328125
v 948.490234375	 8.203953742980957	 -1329.798828125
v 948.8982543945312	 8.214032173156738	 -1328.885986328125
v 949.306640625	 8.21950626373291	 -1327.97314453125
v 949.715576171875	 8.222288131713867	 -1327.0606689453125
v 950.125	 8.228328704833984	 -1326.148193359375
v 950.5348510742188	 8.226760864257812	 -1325.236083984375
v 950.9453125	 8.23945140838623	 -1324.32421875
v 951.3565063476562	 8.23167610168457	 -1323.4127197265625
v 951.7681274414062	 8.235384941101074	 -1322.501220703125
v 952.1800537109375	 8.238703727722168	 -1321.590087890625
v 952.5921630859375	 8.233569145202637	 -1320.678955078125
v 953.0042724609375	 8.247573852539062	 -1319.7677001953125
v 953.416259765625	 8.242791175842285	 -1318.8564453125
v 953.8280029296875	 8.254040718078613	 -1317.94482421875
v 954.2391357421875	 8.263671875	 -1317.033203125
v 954.6497802734375	 8.267148971557617	 -1316.1214599609375
v 955.0592041015625	 8.27206802368164	 -1315.20947265625
v 955.4677734375	 8.268941879272461	 -1314.296875
v 955.8753662109375	 8.276556968688965	 -1313.383056640625
v 956.28125	 8.274683952331543	 -1312.46875
v 956.6853637695312	 8.278029441833496	 -1311.5543212890625
v 957.087158203125	 8.290644645690918	 -1310.63916015625
v 957.487060546875	 8.290802955627441	 -1309.722412109375
v 957.88427734375	 8.304190635681152	 -1308.8038330078125
v 958.2781982421875	 8.307609558105469	 -1307.884765625
v 958.6683959960938	 8.309795379638672	 -1306.965087890625
v 959.055419921875	 8.313618659973145	 -1306.0416259765625
v 959.43701171875	 8.310108184814453	 -1305.1175537109375
v 959.813232421875	 8.311175346374512	 -1304.19140625
v 960.18359375	 8.309202194213867	 -1303.26171875
v 960.5460205078125	 8.314204216003418	 -1302.3304443359375
v 960.89990234375	 8.332059860229492	 -1301.3944091796875
v 961.2427978515625	 8.339798927307129	 -1300.454833984375
v 961.5725708007812	 8.350914001464844	 -1299.51220703125
v 961.88818359375	 8.371575355529785	 -1298.563720703125
v 962.1883544921875	 8.38559627532959	 -1297.6094970703125
v 962.4711303710938	 8.392969131469727	 -1296.65087890625
v 962.7351684570312	 8.407262802124023	 -1295.68603515625
v 962.9788818359375	 8.426546096801758	 -1294.715576171875
v 963.2010498046875	 8.43545913696289	 -1293.74169921875
v 963.4017333984375	 8.445779800415039	 -1292.7615966796875
v 963.5814208984375	 8.453804969787598	 -1291.778564453125
v 963.74267578125	 8.458375930786133	 -1290.7919921875
v 963.8898315429688	 8.466996192932129	 -1289.8031005859375
v 964.0292358398438	 8.473822593688965	 -1288.81298828125
v 964.168212890625	 8.470747947692871	 -1287.82275390625
v 964.3132934570312	 8.46663761138916	 -1286.8333740234375
v 964.4649658203125	 8.462326049804688	 -1285.8450927734375
v 964.622314453125	 8.466446876525879	 -1284.857666015625
v 964.78466796875	 8.473384857177734	 -1283.870849609375
v 964.951171875	 8.47957992553711	 -1282.884765625
v 965.1213989257812	 8.47433090209961	 -1281.8994140625
v 965.29443359375	 8.47327709197998	 -1280.91455078125
v 965.4698486328125	 8.476243019104004	 -1279.9300537109375
v 965.64697265625	 8.487730026245117	 -1278.94580078125
v 965.8252563476562	 8.501375198364258	 -1277.9617919921875
v 966.0040283203125	 8.5098237991333	 -1276.9779052734375
v 966.1824951171875	 8.515073776245117	 -1275.993896484375
v 966.3585205078125	 8.523965835571289	 -1275.009521484375
v 966.530029296875	 8.534614562988281	 -1274.0244140625
v 966.694580078125	 8.544861793518066	 -1273.0380859375
v 966.8497314453125	 8.55639934539795	 -1272.0501708984375
v 966.9939575195312	 8.567547798156738	 -1271.0606689453125
v 967.124755859375	 8.569326400756836	 -1270.0693359375
v 967.240478515625	 8.574198722839355	 -1269.076171875
v 967.33935546875	 8.581297874450684	 -1268.0810546875
v 967.4197998046875	 8.588947296142578	 -1267.084228515625
v 967.480712890625	 8.594395637512207	 -1266.0859375
v 967.5206298828125	 8.601387023925781	 -1265.087158203125
v 967.540771484375	 8.609379768371582	 -1264.08740234375
v 967.5435180664062	 8.6207857131958	 -1263.08740234375
v 967.5306396484375	 8.635662078857422	 -1262.0875244140625
v 967.50439453125	 8.657913208007812	 -1261.087646484375
v 967.4666748046875	 8.675148963928223	 -1260.0885009765625
v 967.4188842773438	 8.694472312927246	 -1259.089599609375
v 967.36279296875	 8.7074613571167	 -1258.0911865234375
v 967.2999267578125	 8.717150688171387	 -1257.0928955078125
v 967.231689453125	 8.726478576660156	 -1256.0953369140625
v 967.1593017578125	 8.730118751525879	 -1255.097900390625
v 967.0843505859375	 8.721294403076172	 -1254.1005859375
v 967.0079956054688	 8.702303886413574	 -1253.103515625
v 966.9312744140625	 8.67204761505127	 -1252.1065673828125
v 966.8546142578125	 8.642677307128906	 -1251.1094970703125
v 966.77783203125	 8.617417335510254	 -1250.1124267578125
v 966.7012329101562	 8.591496467590332	 -1249.1153564453125
v 966.6245727539062	 8.570363998413086	 -1248.118408203125
v 966.5477905273438	 8.554784774780273	 -1247.121337890625
v 966.47119140625	 8.553003311157227	 -1246.124267578125
v 966.3944091796875	 8.56506061553955	 -1245.127197265625
v 966.3177490234375	 8.579647064208984	 -1244.1302490234375
v 966.240966796875	 8.585159301757812	 -1243.133056640625
v 966.164306640625	 8.586380004882812	 -1242.135986328125
v 966.0877075195312	 8.590554237365723	 -1241.138916015625
v 966.0108642578125	 8.598093032836914	 -1240.141845703125
v 965.9346923828125	 8.60354995727539	 -1239.14501953125
v 965.8610229492188	 8.608951568603516	 -1238.148193359375
v 965.7930908203125	 8.619526863098145	 -1237.1505126953125
v 965.7330322265625	 8.636816024780273	 -1236.1529541015625
v 965.682373046875	 8.657546043395996	 -1235.155029296875
v 965.6417236328125	 8.68124008178711	 -1234.156494140625
v 965.611328125	 8.707978248596191	 -1233.157470703125
v 965.591064453125	 8.744465827941895	 -1232.157958984375
v 965.5805053710938	 8.785541534423828	 -1231.1572265625
v 965.5787963867188	 8.828353881835938	 -1230.15869140625
v 965.5855712890625	 8.874101638793945	 -1229.15966796875
v 965.5999755859375	 8.91521167755127	 -1228.158935546875
v 965.6213989257812	 8.954856872558594	 -1227.16064453125
v 965.6492919921875	 8.993162155151367	 -1226.161376953125
v 965.6834716796875	 9.02332878112793	 -1225.15966796875
v 965.72265625	 9.045241355895996	 -1224.1630859375
v 965.7670288085938	 9.066287994384766	 -1223.165283203125
v 965.8160400390625	 9.087846755981445	 -1222.166748046875
v 965.8692626953125	 9.108271598815918	 -1221.167724609375
v 965.92626953125	 9.125532150268555	 -1220.1688232421875
v 965.986572265625	 9.144613265991211	 -1219.17041015625
v 966.0499267578125	 9.166913986206055	 -1218.17236328125
v 966.1158447265625	 9.192221641540527	 -1217.175048828125
v 966.1840209960938	 9.216779708862305	 -1216.177734375
v 966.254638671875	 9.235960006713867	 -1215.1807861328125
v 966.3270874023438	 9.257471084594727	 -1214.183837890625
v 966.4013671875	 9.2780122756958	 -1213.18701171875
v 966.4775390625	 9.295065879821777	 -1212.18994140625
v 966.55517578125	 9.310592651367188	 -1211.1927490234375
v 966.63427734375	 9.328069686889648	 -1210.1951904296875
v 966.7149658203125	 9.344428062438965	 -1209.197509765625
v 966.7965087890625	 9.360539436340332	 -1208.20166015625
v 966.8795166015625	 9.383352279663086	 -1207.2061767578125
v 966.963623046875	 9.405102729797363	 -1206.2100830078125
v 967.0489501953125	 9.425802230834961	 -1205.2135009765625
v 967.13525390625	 9.438935279846191	 -1204.216552734375
v 967.222412109375	 9.455281257629395	 -1203.2203369140625
v 967.310546875	 9.474327087402344	 -1202.2252197265625
v 967.3995361328125	 9.495512008666992	 -1201.2293701171875
v 967.4893798828125	 9.52376651763916	 -1200.23291015625
v 967.5802001953125	 9.547346115112305	 -1199.236328125
v 967.6715087890625	 9.566408157348633	 -1198.2415771484375
v 967.763671875	 9.58392333984375	 -1197.24609375
v 967.8565673828125	 9.601204872131348	 -1196.25
v 967.9501953125	 9.621869087219238	 -1195.25390625
v 968.0443115234375	 9.639948844909668	 -1194.25927734375
v 968.1392822265625	 9.658480644226074	 -1193.2640380859375
v 968.234619140625	 9.672111511230469	 -1192.26806640625
v 968.3306884765625	 9.68492317199707	 -1191.272705078125
v 968.4273071289062	 9.692878723144531	 -1190.27783203125
v 968.5245971679688	 9.706881523132324	 -1189.282470703125
v 968.6222534179688	 9.719626426696777	 -1188.286865234375
v 968.7205200195312	 9.736034393310547	 -1187.2921142578125
v 968.8192138671875	 9.749736785888672	 -1186.297119140625
v 968.9185180664062	 9.761117935180664	 -1185.302001953125
v 969.01806640625	 9.766424179077148	 -1184.3067626953125
v 969.1182861328125	 9.76612663269043	 -1183.31201171875
v 969.218994140625	 9.769990921020508	 -1182.317138671875
v 969.3200073242188	 9.776623725891113	 -1181.3221435546875
v 969.4214477539062	 9.78779125213623	 -1180.32763671875
v 969.5233764648438	 9.79973030090332	 -1179.3328857421875
v 969.625732421875	 9.812116622924805	 -1178.338134765625
v 969.7283935546875	 9.827727317810059	 -1177.343505859375
v 969.83154296875	 9.842156410217285	 -1176.3489990234375
v 969.934814453125	 9.858189582824707	 -1175.354248046875
v 970.0386352539062	 9.873567581176758	 -1174.3597412109375
v 970.142822265625	 9.884256362915039	 -1173.365234375
v 970.247314453125	 9.89025592803955	 -1172.3709716796875
v 970.3521728515625	 9.89639949798584	 -1171.3763427734375
v 970.4573364257812	 9.89540958404541	 -1170.382080078125
v 970.562744140625	 9.89775562286377	 -1169.3875732421875
v 970.6685180664062	 9.902201652526855	 -1168.393310546875
v 970.7744750976562	 9.908102035522461	 -1167.39892578125
v 970.880859375	 9.916808128356934	 -1166.40478515625
v 970.9873046875	 9.925416946411133	 -1165.410400390625
v 971.0941162109375	 9.93017578125	 -1164.4161376953125
v 971.201171875	 9.938106536865234	 -1163.4219970703125
v 971.30859375	 9.947068214416504	 -1162.427734375
v 971.4160766601562	 9.956058502197266	 -1161.43359375
v 971.5238037109375	 9.961283683776855	 -1160.439697265625
v 971.6317138671875	 9.970536231994629	 -1159.4453125
v 971.7399291992188	 9.978201866149902	 -1158.4510498046875
v 971.8483276367188	 9.984760284423828	 -1157.4571533203125
v 971.9566650390625	 9.993011474609375	 -1156.4632568359375
v 972.0652465820312	 9.999520301818848	 -1155.46875
v 972.1742553710938	 10.005085945129395	 -1154.474853515625
v 972.2831420898438	 10.013909339904785	 -1153.48095703125
v 972.3922119140625	 10.022075653076172	 -1152.487060546875
v 972.50146484375	 10.029210090637207	 -1151.4927978515625
v 972.61083984375	 10.033304214477539	 -1150.498779296875
v 972.72021484375	 10.03715705871582	 -1149.505126953125
v 972.829833984375	 10.044039726257324	 -1148.5111083984375
v 972.939453125	 10.05444622039795	 -1147.5169677734375
v 973.049072265625	 10.07058334350586	 -1146.52294921875
v 973.15869140625	 10.084118843078613	 -1145.529296875
v 973.2685546875	 10.09463119506836	 -1144.53515625
v 973.37841796875	 10.102740287780762	 -1143.541015625
v 973.48828125	 10.110663414001465	 -1142.5472412109375
v 973.59814453125	 10.117284774780273	 -1141.5538330078125
v 973.7080078125	 10.127481460571289	 -1140.559326171875
v 973.8178100585938	 10.138861656188965	 -1139.565185546875
v 973.927734375	 10.14979362487793	 -1138.571533203125
v 974.0374755859375	 10.164020538330078	 -1137.5780029296875
v 974.147216796875	 10.176543235778809	 -1136.58349609375
v 974.2570190429688	 10.19056224822998	 -1135.5894775390625
v 974.36669921875	 10.198590278625488	 -1134.595703125
v 974.4763793945312	 10.209136009216309	 -1133.602294921875
v 974.5860595703125	 10.22000789642334	 -1132.60791015625
v 974.6957397460938	 10.227843284606934	 -1131.61376953125
v 974.8053588867188	 10.235804557800293	 -1130.619873046875
v 974.9149169921875	 10.242170333862305	 -1129.626220703125
v 975.0244140625	 10.250554084777832	 -1128.632080078125
v 975.134033203125	 10.256257057189941	 -1127.637939453125
v 975.2435302734375	 10.263033866882324	 -1126.64404296875
v 975.3529052734375	 10.268699645996094	 -1125.650146484375
v 975.46240234375	 10.273880004882812	 -1124.6563720703125
v 975.5718994140625	 10.279606819152832	 -1123.6622314453125
v 975.6813354492188	 10.281790733337402	 -1122.668212890625
v 975.790771484375	 10.28612995147705	 -1121.67431640625
v 975.900146484375	 10.290352821350098	 -1120.680419921875
v 976.0094604492188	 10.300825119018555	 -1119.686279296875
v 976.118896484375	 10.31718921661377	 -1118.6922607421875
v 976.2281494140625	 10.330916404724121	 -1117.6982421875
v 976.3374633789062	 10.34349536895752	 -1116.704345703125
v 976.4467163085938	 10.3522310256958	 -1115.71044921875
v 976.5560913085938	 10.357123374938965	 -1114.71630859375
v 976.665283203125	 10.359246253967285	 -1113.7222900390625
v 976.7745971679688	 10.361554145812988	 -1112.7283935546875
v 976.8837890625	 10.36797046661377	 -1111.734375
v 976.992919921875	 10.373430252075195	 -1110.740478515625
v 977.1021728515625	 10.373937606811523	 -1109.746337890625
v 977.2113647460938	 10.374363899230957	 -1108.752197265625
v 977.320556640625	 10.373540878295898	 -1107.75830078125
v 977.4296875	 10.371869087219238	 -1106.764404296875
v 977.538818359375	 10.36934757232666	 -1105.770263671875
v 977.6480712890625	 10.36597728729248	 -1104.7763671875
v 977.75732421875	 10.361753463745117	 -1103.7823486328125
v 977.8663940429688	 10.360269546508789	 -1102.7882080078125
v 977.9755249023438	 10.353949546813965	 -1101.794189453125
v 978.084716796875	 10.34345817565918	 -1100.8001708984375
v 978.19384765625	 10.32331657409668	 -1099.80615234375
v 978.302978515625	 10.290518760681152	 -1098.812255859375
l 1 2
l 2 3
l 3 4
l 4 5
l 5 6
l 6 7
l 7 8
l 8 9
l 9 10
l 10 11
l 11 12
l 12 13
l 13 14
l 14 15
l 15 16
l 16 17
l 17 18
l 18 19
l 19 20
l 20 21
l 21 22
l 22 23
l 23 24
l 24 25
l 25 26
l 26 27
l 27 28
l 28 29
l 29 30
l 30 31
l 31 32
l 32 33
l 33 34
l 34 35
l 35 36
l 36 37
l 37 38
l 38 39
l 39 40
l 40 41
l 41 42
l 42 43
l 43 44
l 44 45
l 45 46
l 46 47
l 47 48
l 48 49
l 49 50
l 50 51
l 51 52
l 52 53
l 53 54
l 54 55
l 55 56
l 56 57
l 57 58
l 58 59
l 59 60
l 60 61
l 61 62
l 62 63
l 63 64
l 64 65
l 65 66
l 66 67
l 67 68
l 68 69
l 69 70
l 70 71
l 71 72
l 72 73
l 73 74
l 74 75
l 75 76
l 76 77
l 77 78
l 78 79
l 79 80
l 80 81
l 81 82
l 82 83
l 83 84
l 84 85
l 85 86
l 86 87
l 87 88
l 88 89
l 89 90
l 90 91
l 91 92
l 92 93
l 93 94
l 94 95
l 95 96
l 96 97
l 97 98
l 98 99
l 99 100
l 100 101
l 101 102
l 102 103
l 103 104
l 104 105
l 105 106
l 106 107
l 107 108
l 108 109
l 109 110
l 110 111
l 111 112
l 112 113
l 113 114
l 114 115
l 115 116
l 116 117
l 117 118
l 118 119
l 119 120
l 120 121
l 121 122
l 122 123
l 123 124
l 124 125
l 125 126
l 126 127
l 127 128
l 128 129
l 129 130
l 130 131
l 131 132
l 132 133
l 133 134
l 134 135
l 135 136
l 136 137
l 137 138
l 138 139
l 139 140
l 140 141
l 141 142
l 142 143
l 143 144
l 144 145
l 145 146
l 146 147
l 147 148
l 148 149
l 149 150
l 150 151
l 151 152
l 152 153
l 153 154
l 154 155
l 155 156
l 156 157
l 157 158
l 158 159
l 159 160
l 160 161
l 161 162
l 162 163
l 163 164
l 164 165
l 165 166
l 166 167
l 167 168
l 168 169
l 169 170
l 170 171
l 171 172
l 172 173
l 173 174
l 174 175
l 175 176
l 176 177
l 177 178
l 178 179
l 179 180
l 180 181
l 181 182
l 182 183
l 183 184
l 184 185
l 185 186
l 186 187
l 187 188
l 188 189
l 189 190
l 190 191
l 191 192
l 192 193
l 193 194
l 194 195
l 195 196
l 196 197
l 197 198
l 198 199
l 199 200
l 200 201
l 201 202
l 202 203
l 203 204
l 204 205
l 205 206
l 206 207
l 207 208
l 208 209
l 209 210
l 210 211
l 211 212
l 212 213
l 213 214
l 214 215
l 215 216
l 216 217
l 217 218
l 218 219
l 219 220
l 220 221
l 221 222
l 222 223
l 223 224
l 224 225
l 225 226
l 226 227
l 227 228
l 228 229
l 229 230
l 230 231
l 231 232
l 232 233
l 233 234
l 234 235
l 235 236
l 236 237
l 237 238
l 238 239
l 239 240
l 240 241
l 241 242
l 242 243
l 243 244
l 244 245
l 245 246
l 246 247
l 247 248
l 248 249
l 249 250
l 250 251
l 251 252
l 252 253
l 253 254
l 254 255
l 255 256
l 256 257
l 257 258
l 258 259
l 259 260
l 260 261
l 261 262
l 262 263
l 263 264
l 264 265
l 265 266
l 266 267
l 267 268
l 268 269
l 269 270
l 270 271
l 271 272
l 272 273
l 273 274
l 274 275
l 275 276
l 276 277
l 277 278
l 278 279
l 279 280
l 280 281
l 281 282
l 282 283
l 283 284
l 284 285
l 285 286
l 286 287
l 287 288
l 288 289
l 289 290
l 290 291
l 291 292
l 292 293
l 293 294
l 294 295
l 295 296
l 296 297
l 297 298
l 298 299
l 299 300
l 300 301
l 301 302
l 302 303
l 303 304
l 304 305
l 305 306
l 306 307
l 307 308
l 308 309
l 309 310
l 310 311
l 311 312
l 312 313
l 313 314
l 314 315
l 315 316
l 316 317
l 317 318
l 318 319
l 319 320
l 320 321
l 321 322
l 322 323
l 323 324
l 324 325
l 325 326
l 326 327
l 327 328
l 328 329
l 329 330
l 330 331
l 331 332
l 332 333
l 333 334
l 334 335
l 335 336
l 336 337
l 337 338
l 338 339
l 339 340
l 340 341
l 341 342
l 342 343
l 343 344
l 344 345
l 345 346
l 346 347
l 347 348
l 348 349
l 349 350
l 350 351
l 351 352
l 352 353
l 353 354
l 354 355
l 355 356
l 356 357
l 357 358
l 358 359
l 359 360
l 360 361
l 361 362
l 362 363
l 363 364
l 364 365
l 365 366
l 366 367
l 367 368
l 368 369
l 369 370
l 370 371
l 371 372
l 372 373
l 373 374
l 374 375
l 375 376
l 376 377
l 377 378
l 378 379
l 379 380
l 380 381
l 381 382
l 382 383
l 383 384
l 384 385
l 385 386
l 386 387
l 387 388
l 388 389
l 389 390
l 390 391
l 391 392
l 392 393
l 393 394
l 394 395
l 395 396
l 396 397
l 397 398
l 398 399
l 399 400
l 400 401
l 401 402
l 402 403
l 403 404
l 404 405
l 405 406
l 406 407
l 407 408
l 408 409
l 409 410
l 410 411
l 411 412
l 412 413
l 413 414
l 414 415
l 415 416
l 416 417
l 417 418
l 418 419
l 419 420
l 420 421
l 421 422
l 422 423
l 423 424
l 424 425
l 425 426
l 426 427
l 427 428
l 428 429
l 429 430
l 430 431
l 431 432
l 432 433
l 433 434
l 434 435
l 435 436
l 436 437
l 437 438
l 438 439
l 439 440
l 440 441
l 441 442
l 442 443
l 443 444
l 444 445
l 445 446
l 446 447
l 447 448
l 448 449
l 449 450
l 450 451
l 451 452
l 452 453
l 453 454
l 454 455
l 455 456
l 456 457
l 457 458
l 458 459
l 459 460
l 460 461
l 461 462
l 462 463
l 463 464
l 464 465
l 465 466
l 466 467
l 467 468
l 468 469
l 469 470
l 470 471
l 471 472
l 472 473
l 473 474
l 474 475
l 475 476
l 476 477
l 477 478
l 478 479
l 479 480
l 480 481
