# GE Spline Export spline
v 273.638916015625	 18.283069610595703	 84.29749298095703
v 272.6389465332031	 18.294246673583984	 84.29468536376953
v 271.6389465332031	 18.292314529418945	 84.29187774658203
v 270.63897705078125	 18.283754348754883	 84.2890625
v 269.63897705078125	 18.273555755615234	 84.2862548828125
v 268.63897705078125	 18.272003173828125	 84.283447265625
v 267.6390075683594	 18.269845962524414	 84.2806396484375
v 266.6390075683594	 18.264385223388672	 84.27783203125
v 265.6390380859375	 18.26389503479004	 84.2750244140625
v 264.6390380859375	 18.264503479003906	 84.272216796875
v 263.6390686035156	 18.267562866210938	 84.2694091796875
v 262.6390686035156	 18.28301429748535	 84.2666015625
v 261.63909912109375	 18.303028106689453	 84.2637939453125
v 260.63909912109375	 18.325241088867188	 84.260986328125
v 259.6391296386719	 18.35770606994629	 84.25817108154297
v 258.6391296386719	 18.391403198242188	 84.25536346435547
v 257.63916015625	 18.41690444946289	 84.25255584716797
v 256.63916015625	 18.432193756103516	 84.24974822998047
v 255.63917541503906	 18.435401916503906	 84.24694061279297
v 254.63919067382812	 18.4284610748291	 84.24413299560547
v 253.6392059326172	 18.409591674804688	 84.24132537841797
v 252.63922119140625	 18.367271423339844	 84.23851776123047
v 251.6392364501953	 18.312488555908203	 84.23571014404297
v 250.63925170898438	 18.261035919189453	 84.23289489746094
v 249.63925170898438	 18.220361709594727	 84.23008728027344
v 248.6392822265625	 18.18809700012207	 84.22727966308594
v 247.6392822265625	 18.155834197998047	 84.22447204589844
v 246.63929748535156	 18.125885009765625	 84.22166442871094
v 245.63931274414062	 18.098098754882812	 84.21885681152344
v 244.6393280029297	 18.075668334960938	 84.21604919433594
v 243.63934326171875	 18.05906867980957	 84.21324157714844
v 242.6393585205078	 18.04332733154297	 84.21043395996094
v 241.63937377929688	 18.0297794342041	 84.20762634277344
v 240.63938903808594	 18.019927978515625	 84.20481872558594
v 239.639404296875	 18.015506744384766	 84.2020034790039
v 238.63941955566406	 18.014278411865234	 84.1991958618164
v 237.63943481445312	 18.004831314086914	 84.1963882446289
v 236.6394500732422	 17.994789123535156	 84.1935806274414
v 235.6394500732422	 17.982269287109375	 84.1907730102539
v 234.63946533203125	 17.97399139404297	 84.1879653930664
v 233.6394805908203	 17.97391128540039	 84.1851577758789
v 232.63949584960938	 17.972434997558594	 84.1823501586914
v 231.63951110839844	 17.968473434448242	 84.1795425415039
v 230.6395263671875	 17.96632957458496	 84.17672729492188
v 229.63954162597656	 17.961715698242188	 84.17391967773438
v 228.63955688476562	 17.957128524780273	 84.17111206054688
v 227.6395721435547	 17.95330810546875	 84.16830444335938
v 226.63958740234375	 17.95330810546875	 84.16549682617188
v 225.63958740234375	 17.95330810546875	 84.16268920898438
v 224.63961791992188	 17.95330810546875	 84.15988159179688
v 223.63963317871094	 17.95330810546875	 84.15707397460938
v 222.6396484375	 17.95330810546875	 84.15426635742188
v 221.6396484375	 17.95330810546875	 84.15145874023438
v 220.63967895507812	 17.95330810546875	 84.14864349365234
v 219.6396942138672	 17.95330810546875	 84.14583587646484
v 218.63970947265625	 17.95330810546875	 84.14302825927734
v 217.63970947265625	 17.95330810546875	 84.14022064208984
v 216.63973999023438	 17.95330810546875	 84.13741302490234
v 215.63973999023438	 17.95330810546875	 84.13460540771484
v 214.63975524902344	 17.95330810546875	 84.13179779052734
v 213.6397705078125	 17.95330810546875	 84.12899017333984
v 212.63978576660156	 17.95330810546875	 84.12618255615234
v 211.63980102539062	 17.95330810546875	 84.12336730957031
v 210.6398162841797	 17.95330810546875	 84.12055969238281
v 209.63983154296875	 17.954710006713867	 84.11775207519531
v 208.63986206054688	 17.967065811157227	 84.11494445800781
v 207.63986206054688	 18.000595092773438	 84.11213684082031
l 1 2
l 2 3
l 3 4
l 4 5
l 5 6
l 6 7
l 7 8
l 8 9
l 9 10
l 10 11
l 11 12
l 12 13
l 13 14
l 14 15
l 15 16
l 16 17
l 17 18
l 18 19
l 19 20
l 20 21
l 21 22
l 22 23
l 23 24
l 24 25
l 25 26
l 26 27
l 27 28
l 28 29
l 29 30
l 30 31
l 31 32
l 32 33
l 33 34
l 34 35
l 35 36
l 36 37
l 37 38
l 38 39
l 39 40
l 40 41
l 41 42
l 42 43
l 43 44
l 44 45
l 45 46
l 46 47
l 47 48
l 48 49
l 49 50
l 50 51
l 51 52
l 52 53
l 53 54
l 54 55
l 55 56
l 56 57
l 57 58
l 58 59
l 59 60
l 60 61
l 61 62
l 62 63
l 63 64
l 64 65
l 65 66
l 66 67
