# GE Spline Export spline_CSV
v 1301.3690185546875	 3.286179780960083	 -1695.6446533203125
v 1302.1275634765625	 4.761498928070068	 -1694.5406494140625
v 1303.160400390625	 4.933388710021973	 -1693.025390625
v 1304.2698974609375	 4.925241470336914	 -1691.36865234375
v 1305.361572265625	 5.068117141723633	 -1689.7001953125
v 1306.43212890625	 5.106603145599365	 -1688.01171875
v 1307.4801025390625	 5.131763935089111	 -1686.308349609375
v 1308.521728515625	 5.14132022857666	 -1684.6011962890625
v 1309.57470703125	 5.171289920806885	 -1682.90087890625
v 1310.6424560546875	 5.206845283508301	 -1681.210205078125
v 1311.711181640625	 5.19620943069458	 -1679.519775390625
v 1312.765380859375	 5.374026298522949	 -1677.8203125
v 1313.7958984375	 5.22711706161499	 -1676.106689453125
v 1314.80419921875	 5.178046703338623	 -1674.3800048828125
v 1315.80126953125	 5.132295608520508	 -1672.6474609375
v 1316.798095703125	 5.244813919067383	 -1670.913818359375
v 1317.80126953125	 5.139683723449707	 -1669.1839599609375
v 1318.8154296875	 5.106439590454102	 -1667.46044921875
v 1319.8411865234375	 5.130678653717041	 -1665.743896484375
v 1320.876708984375	 5.177030563354492	 -1664.0333251953125
v 1321.920166015625	 5.235617637634277	 -1662.327880859375
v 1322.9691162109375	 5.388773441314697	 -1660.6290283203125
v 1324.02490234375	 5.42801570892334	 -1658.9329833984375
v 1325.08740234375	 5.404740810394287	 -1657.2386474609375
v 1326.1553955078125	 5.392996311187744	 -1655.5479736328125
v 1327.229736328125	 5.389104843139648	 -1653.8609619140625
v 1328.31103515625	 5.58416748046875	 -1652.178466796875
v 1329.400390625	 5.412451267242432	 -1650.501220703125
v 1330.4986572265625	 5.43582010269165	 -1648.8299560546875
v 1331.607421875	 5.472316741943359	 -1647.1658935546875
v 1332.72802734375	 5.486871719360352	 -1645.509521484375
v 1333.8614501953125	 5.565671920776367	 -1643.863037109375
v 1335.008544921875	 5.326023101806641	 -1642.2274169921875
v 1336.1719970703125	 5.181694030761719	 -1640.60595703125
v 1337.3531494140625	 5.111447811126709	 -1638.9951171875
v 1338.53857421875	 5.1158366203308105	 -1637.38427734375
v 1339.6890869140625	 5.116731643676758	 -1635.74853515625
v 1340.7149658203125	 5.190374851226807	 -1634.0338134765625
v 1341.6468505859375	 5.385889530181885	 -1632.2733154296875
v 1342.59033203125	 5.539767265319824	 -1630.519287109375
v 1343.535400390625	 5.593597888946533	 -1628.758056640625
v 1344.43310546875	 5.703904151916504	 -1626.9737548828125
v 1345.2412109375	 6.0394062995910645	 -1625.171142578125
v 1345.9302978515625	 6.240767002105713	 -1623.3135986328125
v 1346.4794921875	 6.224995136260986	 -1621.3917236328125
v 1346.9696044921875	 6.124061584472656	 -1619.4552001953125
v 1347.5911865234375	 5.928426742553711	 -1617.564697265625
v 1348.5306396484375	 5.564298152923584	 -1615.836181640625
v 1349.88818359375	 5.298042297363281	 -1614.411865234375
v 1351.6329345703125	 5.181845664978027	 -1613.462158203125
v 1353.5948486328125	 5.192135810852051	 -1613.123291015625
v 1355.572265625	 5.216052532196045	 -1613.3809814453125
v 1357.4957275390625	 5.23507833480835	 -1613.9283447265625
v 1359.425537109375	 5.266164779663086	 -1614.452392578125
v 1361.3734130859375	 5.353525161743164	 -1614.8974609375
v 1363.332763671875	 5.4305853843688965	 -1615.2896728515625
v 1365.2994384765625	 5.545487880706787	 -1615.6341552734375
v 1367.2880859375	 5.57686710357666	 -1615.810546875
v 1369.2603759765625	 5.426205158233643	 -1615.559814453125
v 1371.10205078125	 5.333884239196777	 -1614.8040771484375
v 1372.7626953125	 5.459267616271973	 -1613.698486328125
v 1374.2744140625	 5.571499824523926	 -1612.3975830078125
v 1375.685791015625	 5.695957660675049	 -1610.984619140625
v 1377.033935546875	 5.749694347381592	 -1609.5089111328125
v 1378.3399658203125	 5.633751392364502	 -1607.9959716796875
v 1379.6136474609375	 5.53989839553833	 -1606.4580078125
v 1380.8643798828125	 5.64212703704834	 -1604.8980712890625
v 1382.0899658203125	 5.745001792907715	 -1603.3218994140625
v 1383.2822265625	 5.625559329986572	 -1601.718017578125
v 1384.4222412109375	 5.637562274932861	 -1600.075927734375
v 1385.4979248046875	 5.723165512084961	 -1598.392333984375
v 1386.5147705078125	 5.7555365562438965	 -1596.6708984375
v 1387.4945068359375	 5.748765468597412	 -1594.9273681640625
v 1388.4637451171875	 5.739299774169922	 -1593.1778564453125
v 1389.4422607421875	 5.734823226928711	 -1591.43359375
v 1390.4503173828125	 5.6713714599609375	 -1589.707275390625
v 1391.5008544921875	 5.583955764770508	 -1588.008056640625
v 1392.5865478515625	 5.573315143585205	 -1586.3289794921875
v 1393.6871337890625	 5.59800386428833	 -1584.6591796875
v 1394.7869873046875	 5.613602161407471	 -1582.98876953125
v 1395.875732421875	 5.629157066345215	 -1581.311279296875
v 1396.948486328125	 5.732839107513428	 -1579.6241455078125
v 1398.00732421875	 5.71623420715332	 -1577.9278564453125
v 1399.0548095703125	 5.765049457550049	 -1576.22412109375
v 1400.0911865234375	 5.66748046875	 -1574.51416015625
v 1401.116943359375	 5.606390953063965	 -1572.79833984375
v 1402.1318359375	 5.704615592956543	 -1571.075439453125
v 1403.1339111328125	 5.666270732879639	 -1569.3453369140625
v 1404.120849609375	 5.660768508911133	 -1567.6058349609375
v 1405.0875244140625	 5.583817958831787	 -1565.8565673828125
v 1406.0301513671875	 5.563594818115234	 -1564.0938720703125
v 1406.9423828125	 5.5856428146362305	 -1562.3148193359375
v 1407.8160400390625	 5.612454891204834	 -1560.516357421875
v 1408.641845703125	 5.598240375518799	 -1558.69482421875
v 1409.40087890625	 5.577083110809326	 -1556.8448486328125
v 1410.058349609375	 5.631197929382324	 -1554.9573974609375
v 1410.571533203125	 5.719765663146973	 -1553.0272216796875
v 1410.9041748046875	 5.694136619567871	 -1551.05615234375
v 1411.0899658203125	 5.687953472137451	 -1549.0653076171875
v 1411.226318359375	 5.7818098068237305	 -1547.0716552734375
v 1411.4146728515625	 5.9019999504089355	 -1545.084716796875
v 1411.743896484375	 5.926512241363525	 -1543.1136474609375
v 1412.246337890625	 5.890636444091797	 -1541.1787109375
v 1412.89697265625	 5.8841166496276855	 -1539.2879638671875
v 1413.6556396484375	 5.931278705596924	 -1537.4381103515625
v 1414.4879150390625	 5.953307628631592	 -1535.6201171875
v 1415.3675537109375	 5.917398929595947	 -1533.82421875
v 1416.2772216796875	 5.880337238311768	 -1532.0452880859375
v 1417.208984375	 5.783441543579102	 -1530.2767333984375
v 1418.1571044921875	 5.776325702667236	 -1528.5157470703125
v 1419.1171875	 5.767465591430664	 -1526.7613525390625
v 1420.0860595703125	 5.813240051269531	 -1525.011962890625
v 1421.0611572265625	 5.899430274963379	 -1523.2662353515625
v 1422.0423583984375	 5.902549743652344	 -1521.5235595703125
v 1423.0296630859375	 5.87075662612915	 -1519.784423828125
v 1424.02294921875	 5.886861801147461	 -1518.0484619140625
v 1425.021728515625	 5.902539253234863	 -1516.3157958984375
v 1426.0252685546875	 5.92422342300415	 -1514.5859375
v 1427.0330810546875	 5.8903703689575195	 -1512.8583984375
v 1428.0445556640625	 5.928219795227051	 -1511.133056640625
v 1429.0601806640625	 5.91928243637085	 -1509.4102783203125
v 1430.08056640625	 5.823350429534912	 -1507.6905517578125
v 1431.1068115234375	 5.774120330810547	 -1505.9744873046875
v 1432.1402587890625	 5.779107093811035	 -1504.262451171875
v 1433.1820068359375	 5.839592933654785	 -1502.55615234375
v 1434.2349853515625	 5.873627185821533	 -1500.8563232421875
v 1435.3026123046875	 6.054582118988037	 -1499.165283203125
v 1436.38671875	 5.947834014892578	 -1497.4854736328125
v 1437.484130859375	 6.068747520446777	 -1495.8172607421875
v 1438.5916748046875	 6.106646537780762	 -1494.1533203125
v 1439.699951171875	 6.111417293548584	 -1492.488525390625
v 1440.79150390625	 6.334620952606201	 -1490.81298828125
v 1441.84521484375	 6.19502067565918	 -1489.114013671875
v 1442.853515625	 6.106237411499023	 -1487.388427734375
v 1443.821044921875	 5.943254470825195	 -1485.6488037109375
v 1444.7755126953125	 6.054718971252441	 -1483.894287109375
v 1445.735107421875	 6.033668518066406	 -1482.14306640625
v 1446.7088623046875	 6.045962810516357	 -1480.396484375
v 1447.697998046875	 5.966408729553223	 -1478.6607666015625
v 1448.6910400390625	 5.899613380432129	 -1476.92919921875
v 1449.6417236328125	 5.746661186218262	 -1475.1719970703125
v 1450.3638916015625	 5.680441856384277	 -1473.312255859375
v 1450.6121826171875	 5.743016719818115	 -1471.3358154296875
v 1450.394775390625	 5.864189147949219	 -1469.3548583984375
v 1449.9488525390625	 5.867220401763916	 -1467.4058837890625
v 1449.47265625	 5.8466572761535645	 -1465.4637451171875
v 1449.033935546875	 5.903542995452881	 -1463.5133056640625
v 1448.6424560546875	 5.936352252960205	 -1461.5528564453125
v 1448.3045654296875	 5.915033340454102	 -1459.581787109375
v 1448.02734375	 5.922155857086182	 -1457.6011962890625
v 1447.8212890625	 5.982431411743164	 -1455.61279296875
v 1447.6912841796875	 6.020941734313965	 -1453.617919921875
v 1447.610107421875	 6.022416114807129	 -1451.6195068359375
v 1447.5303955078125	 6.051639080047607	 -1449.6214599609375
v 1447.406494140625	 6.054992198944092	 -1447.6256103515625
v 1447.190185546875	 5.916881561279297	 -1445.6385498046875
v 1446.8375244140625	 6.035236835479736	 -1443.6932373046875
v 1446.34375	 5.971112251281738	 -1441.7996826171875
v 1445.7177734375	 6.561692714691162	 -1439.909423828125
v 1444.9825439453125	 6.874513626098633	 -1438.05029296875
v 1444.163818359375	 5.332655429840088	 -1436.2489013671875
v 1443.31396484375	 5.788642406463623	 -1434.60595703125
v 1442.3077392578125	 6.510252952575684	 -1432.957763671875
v 1441.1876220703125	 6.447968482971191	 -1431.311767578125
v 1440.1461181640625	 6.409855365753174	 -1429.6063232421875
v 1439.3447265625	 6.179558277130127	 -1427.7899169921875
v 1438.8133544921875	 5.893794059753418	 -1425.88525390625
v 1438.4412841796875	 5.796797752380371	 -1423.9256591796875
v 1438.1207275390625	 5.782101154327393	 -1421.95166015625
v 1437.8021240234375	 5.786258697509766	 -1419.9771728515625
v 1437.4674072265625	 5.809274196624756	 -1418.0054931640625
v 1437.1185302734375	 5.839756965637207	 -1416.0364990234375
v 1436.7589111328125	 5.926373481750488	 -1414.0709228515625
v 1436.3897705078125	 5.960265159606934	 -1412.10595703125
v 1436.01318359375	 6.052736759185791	 -1410.1439208984375
v 1435.630126953125	 6.184844970703125	 -1408.18603515625
v 1435.2396240234375	 6.140693664550781	 -1406.2254638671875
v 1434.8424072265625	 6.071349143981934	 -1404.267333984375
v 1434.4371337890625	 6.082976818084717	 -1402.3089599609375
v 1434.0234375	 6.169699668884277	 -1400.3538818359375
v 1433.6005859375	 6.220232009887695	 -1398.400390625
v 1433.16796875	 6.1997833251953125	 -1396.4481201171875
v 1432.72509765625	 6.239367485046387	 -1394.4984130859375
v 1432.2720947265625	 6.302698135375977	 -1392.5516357421875
v 1431.8079833984375	 6.307594299316406	 -1390.6064453125
v 1431.333984375	 6.250302314758301	 -1388.6644287109375
v 1430.8516845703125	 6.238429069519043	 -1386.7237548828125
v 1430.3641357421875	 6.217954635620117	 -1384.7843017578125
v 1429.873779296875	 6.199645519256592	 -1382.8455810546875
v 1429.383056640625	 6.225413799285889	 -1380.9068603515625
v 1428.8946533203125	 6.3248419761657715	 -1378.9697265625
v 1428.4111328125	 6.434142589569092	 -1377.03271484375
v 1427.9346923828125	 6.444640159606934	 -1375.0908203125
v 1427.4700927734375	 6.365865230560303	 -1373.14697265625
v 1427.022216796875	 6.374173641204834	 -1371.1982421875
v 1426.5953369140625	 6.510008811950684	 -1369.248779296875
v 1426.1875	 6.604226112365723	 -1367.29443359375
v 1425.796142578125	 6.5279693603515625	 -1365.3345947265625
v 1425.4178466796875	 6.410511493682861	 -1363.3751220703125
v 1425.0440673828125	 6.3904900550842285	 -1361.4110107421875
v 1424.66455078125	 6.447337627410889	 -1359.4482421875
v 1424.2642822265625	 6.51004695892334	 -1357.48974609375
v 1423.836669921875	 6.57472038269043	 -1355.537109375
v 1423.384765625	 6.599916934967041	 -1353.58935546875
v 1422.915283203125	 6.5618133544921875	 -1351.6455078125
v 1422.4364013671875	 6.4829535484313965	 -1349.7052001953125
v 1421.954345703125	 6.437859058380127	 -1347.764892578125
v 1421.4722900390625	 6.434648036956787	 -1345.8238525390625
v 1420.991455078125	 6.49001407623291	 -1343.88330078125
v 1420.51171875	 6.5291829109191895	 -1341.9425048828125
v 1420.032958984375	 6.513880729675293	 -1340.000732421875
v 1419.5557861328125	 6.472193717956543	 -1338.0589599609375
v 1419.080078125	 6.401465892791748	 -1336.11767578125
v 1418.60595703125	 6.350540637969971	 -1334.1754150390625
v 1418.1334228515625	 6.344496726989746	 -1332.232177734375
v 1417.6630859375	 6.401706695556641	 -1330.2891845703125
v 1417.1951904296875	 6.453446865081787	 -1328.3455810546875
v 1416.7308349609375	 6.523671627044678	 -1326.4014892578125
v 1416.2701416015625	 6.587473392486572	 -1324.456298828125
v 1415.8154296875	 6.772074222564697	 -1322.5169677734375
v 1415.3668212890625	 6.962446212768555	 -1320.5814208984375
v 1414.9224853515625	 6.85011100769043	 -1318.6378173828125
v 1414.48486328125	 6.683745861053467	 -1316.69580078125
v 1414.0526123046875	 6.65758752822876	 -1314.7432861328125
v 1413.627197265625	 6.676433086395264	 -1312.7891845703125
v 1413.2066650390625	 6.703962802886963	 -1310.834228515625
v 1412.7879638671875	 6.715480804443359	 -1308.8785400390625
v 1412.367919921875	 6.693813323974609	 -1306.92333984375
v 1411.9439697265625	 6.630702018737793	 -1304.9698486328125
v 1411.512451171875	 6.714536666870117	 -1303.0191650390625
v 1411.070556640625	 6.829825401306152	 -1301.073486328125
v 1410.6136474609375	 6.714400291442871	 -1299.1295166015625
v 1410.138427734375	 6.619713306427002	 -1297.19140625
v 1409.640869140625	 6.613388538360596	 -1295.2542724609375
v 1409.1231689453125	 6.561094284057617	 -1293.3232421875
v 1408.587158203125	 6.564263820648193	 -1291.3968505859375
v 1408.034912109375	 6.585700988769531	 -1289.474853515625
v 1407.4683837890625	 6.613458156585693	 -1287.556884765625
v 1406.8896484375	 6.626281261444092	 -1285.6427001953125
v 1406.3009033203125	 6.590015888214111	 -1283.731689453125
v 1405.7056884765625	 6.609074115753174	 -1281.8226318359375
v 1405.1092529296875	 6.606335163116455	 -1279.9140625
v 1404.519287109375	 6.610859394073486	 -1278.0030517578125
v 1403.9462890625	 6.603710651397705	 -1276.0870361328125
v 1403.3974609375	 6.587277889251709	 -1274.1639404296875
v 1402.87353515625	 6.613214015960693	 -1272.2340087890625
v 1402.3701171875	 6.580708980560303	 -1270.2989501953125
v 1401.8809814453125	 6.5295023918151855	 -1268.3607177734375
v 1401.401123046875	 6.5589280128479	 -1266.41943359375
v 1400.92822265625	 6.6371378898620605	 -1264.477783203125
v 1400.4599609375	 6.693880558013916	 -1262.5345458984375
v 1399.9945068359375	 6.723935604095459	 -1260.5897216796875
v 1399.53125	 6.768374443054199	 -1258.6446533203125
v 1399.069091796875	 6.777307510375977	 -1256.698974609375
v 1398.607666015625	 6.771480560302734	 -1254.7529296875
v 1398.1466064453125	 6.706206798553467	 -1252.80810546875
v 1397.68505859375	 6.744095802307129	 -1250.863037109375
v 1397.2227783203125	 6.783052921295166	 -1248.91845703125
v 1396.7589111328125	 6.821322441101074	 -1246.973388671875
v 1396.29345703125	 6.821345329284668	 -1245.028564453125
v 1395.8258056640625	 6.809338569641113	 -1243.0841064453125
v 1395.3555908203125	 6.783707618713379	 -1241.140380859375
v 1394.8822021484375	 6.7601447105407715	 -1239.197509765625
v 1394.4049072265625	 6.709764003753662	 -1237.2557373046875
v 1393.9228515625	 6.6770429611206055	 -1235.315185546875
v 1393.4351806640625	 6.693078994750977	 -1233.375732421875
v 1392.94189453125	 6.691637992858887	 -1231.437744140625
v 1392.443603515625	 6.651774883270264	 -1229.501220703125
v 1391.9412841796875	 6.65216588973999	 -1227.5655517578125
v 1391.4364013671875	 6.7032294273376465	 -1225.6309814453125
v 1390.9298095703125	 6.721734046936035	 -1223.696533203125
v 1390.42333984375	 6.68178129196167	 -1221.76220703125
v 1389.91796875	 6.704545974731445	 -1219.82763671875
v 1389.4154052734375	 6.78334379196167	 -1217.8935546875
v 1388.915771484375	 6.776556968688965	 -1215.95751953125
v 1388.4197998046875	 6.701225280761719	 -1214.021484375
v 1387.927001953125	 6.710113048553467	 -1212.08349609375
v 1387.436279296875	 6.758119583129883	 -1210.1453857421875
v 1386.946533203125	 6.755250453948975	 -1208.206298828125
v 1386.4580078125	 6.721597194671631	 -1206.2672119140625
v 1385.969482421875	 6.72769021987915	 -1204.327880859375
v 1385.4805908203125	 6.7291388511657715	 -1202.388671875
v 1384.9913330078125	 6.734446048736572	 -1200.449462890625
v 1384.50146484375	 6.8297319412231445	 -1198.5123291015625
v 1384.0128173828125	 7.035187721252441	 -1196.584716796875
v 1383.5218505859375	 7.203595161437988	 -1194.6544189453125
v 1383.027587890625	 7.26728630065918	 -1192.7178955078125
v 1382.53125	 7.277839660644531	 -1190.78076171875
v 1382.03271484375	 7.258877754211426	 -1188.8438720703125
v 1381.5328369140625	 7.247656345367432	 -1186.907470703125
v 1381.0325927734375	 7.335066318511963	 -1184.972900390625
v 1380.5322265625	 7.419159412384033	 -1183.0394287109375
v 1380.0313720703125	 7.37021017074585	 -1181.10400390625
v 1379.5313720703125	 7.296677112579346	 -1179.1690673828125
v 1379.031982421875	 7.256912708282471	 -1177.232666015625
v 1378.533935546875	 7.233689308166504	 -1175.2960205078125
v 1378.03759765625	 7.272432327270508	 -1173.3590087890625
v 1377.543212890625	 7.2850775718688965	 -1171.421630859375
v 1377.0513916015625	 7.288201808929443	 -1169.4830322265625
v 1376.5623779296875	 7.357293128967285	 -1167.5450439453125
v 1376.0772705078125	 7.484982967376709	 -1165.609375
v 1375.5947265625	 7.571447372436523	 -1163.6707763671875
v 1375.115478515625	 7.61659574508667	 -1161.7294921875
v 1374.6397705078125	 7.626709938049316	 -1159.787109375
v 1374.168212890625	 7.683923244476318	 -1157.844482421875
v 1373.701171875	 7.680546760559082	 -1155.9005126953125
v 1373.2379150390625	 7.716817855834961	 -1153.95556640625
v 1372.7784423828125	 7.719996452331543	 -1152.009765625
v 1372.3226318359375	 7.711818695068359	 -1150.0626220703125
v 1371.8702392578125	 7.6330366134643555	 -1148.1162109375
v 1371.421875	 7.50297212600708	 -1146.1717529296875
v 1370.9757080078125	 7.481812953948975	 -1144.222900390625
v 1370.53173828125	 7.504527568817139	 -1142.27294921875
v 1370.090576171875	 7.5619072914123535	 -1140.32275390625
v 1369.65234375	 7.648393154144287	 -1138.3736572265625
v 1369.2156982421875	 7.612221717834473	 -1136.4227294921875
v 1368.781982421875	 7.479119777679443	 -1134.4755859375
v 1368.349365234375	 7.464125633239746	 -1132.5244140625
v 1367.91845703125	 7.522497177124023	 -1130.57275390625
v 1367.489013671875	 7.507525444030762	 -1128.6195068359375
v 1367.0611572265625	 7.4229736328125	 -1126.6676025390625
v 1366.6341552734375	 7.424238681793213	 -1124.714599609375
v 1366.209228515625	 7.579621315002441	 -1122.765869140625
v 1365.7852783203125	 7.687682628631592	 -1120.81640625
v 1365.36083984375	 7.70709753036499	 -1118.862060546875
v 1364.937255859375	 7.682311534881592	 -1116.90771484375
v 1364.5146484375	 7.628721714019775	 -1114.9534912109375
v 1364.093017578125	 7.560305595397949	 -1112.999755859375
v 1363.6722412109375	 7.5369648933410645	 -1111.044921875
v 1363.252197265625	 7.511825084686279	 -1109.08984375
v 1362.8333740234375	 7.438607692718506	 -1107.1357421875
v 1362.4154052734375	 7.492190361022949	 -1105.180908203125
v 1362.00048828125	 7.699190139770508	 -1103.2333984375
v 1361.586181640625	 7.804259777069092	 -1101.283203125
v 1361.171875	 7.773490905761719	 -1099.3271484375
v 1360.759521484375	 7.677434921264648	 -1097.372802734375
v 1360.348876953125	 7.684192180633545	 -1095.416259765625
v 1359.9403076171875	 7.759993553161621	 -1093.460205078125
v 1359.5333251953125	 7.768529891967773	 -1091.50244140625
v 1359.12939453125	 7.707790374755859	 -1089.544677734375
v 1358.728759765625	 7.663759231567383	 -1087.586181640625
v 1358.3321533203125	 7.698873043060303	 -1085.6259765625
v 1357.940673828125	 7.78732967376709	 -1083.66748046875
v 1357.554443359375	 7.850802421569824	 -1081.70703125
v 1357.174072265625	 7.753908157348633	 -1079.745849609375
v 1356.8001708984375	 7.6826171875	 -1077.78369140625
v 1356.4329833984375	 7.711964130401611	 -1075.8179931640625
v 1356.0726318359375	 7.761647701263428	 -1073.851318359375
v 1355.7181396484375	 7.79902458190918	 -1071.883544921875
l 1 2
l 2 3
l 3 4
l 4 5
l 5 6
l 6 7
l 7 8
l 8 9
l 9 10
l 10 11
l 11 12
l 12 13
l 13 14
l 14 15
l 15 16
l 16 17
l 17 18
l 18 19
l 19 20
l 20 21
l 21 22
l 22 23
l 23 24
l 24 25
l 25 26
l 26 27
l 27 28
l 28 29
l 29 30
l 30 31
l 31 32
l 32 33
l 33 34
l 34 35
l 35 36
l 36 37
l 37 38
l 38 39
l 39 40
l 40 41
l 41 42
l 42 43
l 43 44
l 44 45
l 45 46
l 46 47
l 47 48
l 48 49
l 49 50
l 50 51
l 51 52
l 52 53
l 53 54
l 54 55
l 55 56
l 56 57
l 57 58
l 58 59
l 59 60
l 60 61
l 61 62
l 62 63
l 63 64
l 64 65
l 65 66
l 66 67
l 67 68
l 68 69
l 69 70
l 70 71
l 71 72
l 72 73
l 73 74
l 74 75
l 75 76
l 76 77
l 77 78
l 78 79
l 79 80
l 80 81
l 81 82
l 82 83
l 83 84
l 84 85
l 85 86
l 86 87
l 87 88
l 88 89
l 89 90
l 90 91
l 91 92
l 92 93
l 93 94
l 94 95
l 95 96
l 96 97
l 97 98
l 98 99
l 99 100
l 100 101
l 101 102
l 102 103
l 103 104
l 104 105
l 105 106
l 106 107
l 107 108
l 108 109
l 109 110
l 110 111
l 111 112
l 112 113
l 113 114
l 114 115
l 115 116
l 116 117
l 117 118
l 118 119
l 119 120
l 120 121
l 121 122
l 122 123
l 123 124
l 124 125
l 125 126
l 126 127
l 127 128
l 128 129
l 129 130
l 130 131
l 131 132
l 132 133
l 133 134
l 134 135
l 135 136
l 136 137
l 137 138
l 138 139
l 139 140
l 140 141
l 141 142
l 142 143
l 143 144
l 144 145
l 145 146
l 146 147
l 147 148
l 148 149
l 149 150
l 150 151
l 151 152
l 152 153
l 153 154
l 154 155
l 155 156
l 156 157
l 157 158
l 158 159
l 159 160
l 160 161
l 161 162
l 162 163
l 163 164
l 164 165
l 165 166
l 166 167
l 167 168
l 168 169
l 169 170
l 170 171
l 171 172
l 172 173
l 173 174
l 174 175
l 175 176
l 176 177
l 177 178
l 178 179
l 179 180
l 180 181
l 181 182
l 182 183
l 183 184
l 184 185
l 185 186
l 186 187
l 187 188
l 188 189
l 189 190
l 190 191
l 191 192
l 192 193
l 193 194
l 194 195
l 195 196
l 196 197
l 197 198
l 198 199
l 199 200
l 200 201
l 201 202
l 202 203
l 203 204
l 204 205
l 205 206
l 206 207
l 207 208
l 208 209
l 209 210
l 210 211
l 211 212
l 212 213
l 213 214
l 214 215
l 215 216
l 216 217
l 217 218
l 218 219
l 219 220
l 220 221
l 221 222
l 222 223
l 223 224
l 224 225
l 225 226
l 226 227
l 227 228
l 228 229
l 229 230
l 230 231
l 231 232
l 232 233
l 233 234
l 234 235
l 235 236
l 236 237
l 237 238
l 238 239
l 239 240
l 240 241
l 241 242
l 242 243
l 243 244
l 244 245
l 245 246
l 246 247
l 247 248
l 248 249
l 249 250
l 250 251
l 251 252
l 252 253
l 253 254
l 254 255
l 255 256
l 256 257
l 257 258
l 258 259
l 259 260
l 260 261
l 261 262
l 262 263
l 263 264
l 264 265
l 265 266
l 266 267
l 267 268
l 268 269
l 269 270
l 270 271
l 271 272
l 272 273
l 273 274
l 274 275
l 275 276
l 276 277
l 277 278
l 278 279
l 279 280
l 280 281
l 281 282
l 282 283
l 283 284
l 284 285
l 285 286
l 286 287
l 287 288
l 288 289
l 289 290
l 290 291
l 291 292
l 292 293
l 293 294
l 294 295
l 295 296
l 296 297
l 297 298
l 298 299
l 299 300
l 300 301
l 301 302
l 302 303
l 303 304
l 304 305
l 305 306
l 306 307
l 307 308
l 308 309
l 309 310
l 310 311
l 311 312
l 312 313
l 313 314
l 314 315
l 315 316
l 316 317
l 317 318
l 318 319
l 319 320
l 320 321
l 321 322
l 322 323
l 323 324
l 324 325
l 325 326
l 326 327
l 327 328
l 328 329
l 329 330
l 330 331
l 331 332
l 332 333
l 333 334
l 334 335
l 335 336
l 336 337
l 337 338
l 338 339
l 339 340
l 340 341
l 341 342
l 342 343
l 343 344
l 344 345
l 345 346
l 346 347
l 347 348
l 348 349
